<mxfile host="65bd71144e">
    <diagram id="_lgB5Tv9mRWgoRMpOduQ" name="Page-1">
        <mxGraphModel dx="833" dy="540" grid="1" gridSize="10" guides="1" tooltips="1" connect="1" arrows="1" fold="1" page="1" pageScale="1" pageWidth="850" pageHeight="1100" background="#ffffff" math="0" shadow="1">
            <root>
                <mxCell id="0"/>
                <mxCell id="1" parent="0"/>
                <mxCell id="2" value="" style="rounded=1;whiteSpace=wrap;html=1;fillColor=#cce5ff;strokeColor=#36393d;" vertex="1" parent="1">
                    <mxGeometry x="40" y="80" width="160" height="280" as="geometry"/>
                </mxCell>
                <mxCell id="3" value="&lt;font color=&quot;#000000&quot;&gt;Webserver&lt;/font&gt;" style="rounded=0;whiteSpace=wrap;html=1;fillColor=#f9f7ed;strokeColor=#36393d;" vertex="1" parent="1">
                    <mxGeometry x="60" y="120" width="120" height="60" as="geometry"/>
                </mxCell>
                <mxCell id="4" value="&lt;font color=&quot;#000000&quot;&gt;Scheduler&lt;br&gt;&lt;br&gt;Celery executor&lt;/font&gt;" style="rounded=0;whiteSpace=wrap;html=1;strokeColor=#36393d;fillColor=#f9f7ed;" vertex="1" parent="1">
                    <mxGeometry x="60" y="220" width="120" height="90" as="geometry"/>
                </mxCell>
                <mxCell id="5" value="&lt;font color=&quot;#000000&quot;&gt;Database&lt;br&gt;(Postgresql)&lt;/font&gt;" style="shape=cylinder3;whiteSpace=wrap;html=1;boundedLbl=1;backgroundOutline=1;size=15;fillColor=#ffcc99;strokeColor=#36393d;" vertex="1" parent="1">
                    <mxGeometry x="330" y="80" width="90" height="80" as="geometry"/>
                </mxCell>
                <mxCell id="6" value="" style="rounded=1;whiteSpace=wrap;html=1;fillColor=#cce5ff;strokeColor=#36393d;" vertex="1" parent="1">
                    <mxGeometry x="520" y="80" width="120" height="120" as="geometry"/>
                </mxCell>
                <mxCell id="7" value="" style="rounded=1;whiteSpace=wrap;html=1;fillColor=#cce5ff;strokeColor=#36393d;" vertex="1" parent="1">
                    <mxGeometry x="520" y="240" width="120" height="120" as="geometry"/>
                </mxCell>
                <mxCell id="28" style="edgeStyle=none;html=1;entryX=1;entryY=0;entryDx=0;entryDy=27.5;entryPerimeter=0;strokeColor=#005700;fontColor=#000000;fillColor=#008a00;" edge="1" parent="1" source="8" target="5">
                    <mxGeometry relative="1" as="geometry"/>
                </mxCell>
                <mxCell id="8" value="" style="rounded=0;whiteSpace=wrap;html=1;fillColor=#f9f7ed;strokeColor=#36393d;" vertex="1" parent="1">
                    <mxGeometry x="535" y="90" width="90" height="80" as="geometry"/>
                </mxCell>
                <mxCell id="27" style="edgeStyle=none;html=1;entryX=1;entryY=0.5;entryDx=0;entryDy=0;entryPerimeter=0;strokeColor=#005700;fontColor=#000000;fillColor=#008a00;" edge="1" parent="1" source="11" target="5">
                    <mxGeometry relative="1" as="geometry"/>
                </mxCell>
                <mxCell id="11" value="" style="rounded=0;whiteSpace=wrap;html=1;fillColor=#f9f7ed;strokeColor=#36393d;" vertex="1" parent="1">
                    <mxGeometry x="535" y="250" width="90" height="80" as="geometry"/>
                </mxCell>
                <mxCell id="12" value="" style="shape=image;verticalLabelPosition=bottom;labelBackgroundColor=default;verticalAlign=top;aspect=fixed;imageAspect=0;image=data:image/png,iVBORw0KGgoAAAANSUhEUgAAAgAAAAIACAYAAAD0eNT6AAAABHNCSVQICAgIfAhkiAAAAAlwSFlzAAALGAAACxgBiam1EAAAABl0RVh0U29mdHdhcmUAd3d3Lmlua3NjYXBlLm9yZ5vuPBoAACAASURBVHic7N13nCRVuf/xzxeWKEiQxWXxIkgWQUBAkAwiUQRERRBMP0W5XkWvGQmKYEDFcEVQr5cgiKjkJBKXBYmSJCeVzK7kzO4+vz/OGeidnZ7pmenu51TV8369+oWsy9R3uqvqefpU1TkyM0IIoydpE+AAYEvvLA13AfAtM5viHSSEKlE0ACGMjqSlgKOBdzlHCbM7D/iImT3kHSSEKogGIIRRkLQ58Dvg9d5ZwpAeAT5oZhd5BwmhdNEAhNAhSTsApwATvLOEYc0AdjazM72DhFCyaABC6ICkzYBzgPmdo4TOvABsa2YXewcJoVTRAIQwAklLALcCS3hnCaMyHVjVzKZ7BwmhRHN5BwihAn5EFP8qWoL02YUQhhAjACEMQ9L6wF+9c4Rx2cDMrvAOEUJpYgQghOHt7R0gjFt8hiEMIUYAQmhD0muBh4AFvbOEcXkOWMrMnvIOEkJJYgQghPY2IYp/HSxI+ixDCC2iAQihvbd5BwhdE59lCINEAxBCe2t7BwhdE59lCINEAxBCe8t5BwhdE59lCINEAxBCe5O9A4Suic8yhEHiKYAQhiBpPtJ0sqE+5jezF71DhFCKGAEIYWjxjbF+4jMNoUU0ACEMLYpF/cRnGkKLaABCGFoUi/qJzzSEFtEAhDC0KBb1E59pCC2iAQhhaFEs6ic+0xBaRAMQwtCW9g4Qui4+0xBaRAMQwtDi22L9xGcaQotoAEIYWhSL+onPNIQW0QCEMLQoFvUTn2kILaIBCGEQSQsBC3vnCF23cP5sQwhEAxDCUOKbYn3FZxtCFg1ACHOKIlFf8SRACFk0ACHMKYpEfUVzF0I2wTtACAXyLBKXAfc7br8f3gBs6LTtaABCyKIBCGFOnkVifzO7yHH7PSdpc+BCp81HAxBCFpcAQpiTZ5F40HHb/eL5O0YDEEIWDUAIc4oGoLeiAQihANEAhDAnryLxjJk97bTtvsm/4zNOm48GIIQsGoAQ5uRVJJrw7X+A1+8aDUAIWTQAIbSQtDgwv9PmowHovfnzZxxC40UDEMLs4vp/f8R9ACE4iwYghNl5FocHHLfdb56/azQAIRANQAiDxQhAf8QIQAjOYiKgGpC0CrAysAKwGPB8ft0OXGlm0x3jVU00AP0RDUBFSFoCeDvpHLNAfj0O3AXcbma3OcYL4xANQEVJWhX4CLAr8KYR/u6twFHA/5nZU71PV2me6wBEA9AfsdbDCCS9FvgosDew6gh/9x7gj8DRZnZrH+KFLolLABUjaZKkXwI3AV9mhOKfrQr8GLhf0jckRePXXowA9EeMABRI0gRJ+5PWo/gxIxT/7E2kc9FNkn4paVIvM4bukZl5ZwgdkrQ9cALw2nH+qOuBj5jZDeNPVS+SrgTWc9r8Amb2gtO2+0rS/KTLVB6uMrO3O227WJLeChwNrDnOH/UUsLuZnTXuUKGnYgSgIiT9N3A64y/+kA7wKyR9qAs/q268vh0+3pTiD5B/18edNh8jAIPkc8EVjL/4QzpHnZ7PWaFg0QBUgKTvAD+gu5/X/MBxkg6TNHcXf25lSZoL8Bq+bNIjgAO8fudJ+bNuPElzSzoMOI7uToA1F/CDfO4KhYqDoHD5APpqDzfxReAsSYv2cBtVMRG/G2ObdP1/gNfvPIH0WTdaPubPIp0DeuWr0QSUKxqAgvWh+A/YGrgqP07YZHEDYH/FjYBO8rF+FenY77VoAgoVDUCh+lj8B6wIXClphz5uszTxCGB/xaOADvIxfiXpmO+XaAIKFA1AgRyK/4DXAqdJ+prDtksQIwD9FSMAfZaP7dPozs3EoxVNQGGiASiMY/EfMBdwqKQTJS3gmMNDNAD9FQ1An0haQNKJwKH4nvejCShINAAFKaD4t/oAcJmkZbyD9FEsBNRfsSBQH+Rj+DLSMV2CaAIKEQ1AIQor/gPWAq6WtJF3kD6JEYD+ihGAHsvH7tWkY7kk0QQUIBqAAhRa/AcsCVwo6ZPeQfrAqyjMAh522ranh0m/u4faNwD5mL2QdAyXKJoAZ9EAOCu8+A+YBzhK0hGS5vEO00Ned4ZPM7MZTtt2k3/naU6br+1TAJLmkXQEaQGw0o/XaAIcRQPgqCLFv9Wngb/k5UFrJTc2XpPDNHH4f4DX7z6xjs1sPjb/QjpWqyKaACfRADipYPEfsClwTV44pE4mAXLadjQA/Sf8pn3uiXxMXkM6RqsmmgAH0QA4qHDxH/BG0hMCu3oH6aK4AdBH3AjYBflYvIx0bFZVNAF9Fg1An9Wg+A94DfAHSQdL8vrm3E3xCKCPeBRwHJQcDPyBdExWXTQBfRQNQB/VqPi3+gZwqqSFvYOMU4wA+IgRgDHKx9yppGOwTqIJ6JNoAPqkpsV/wI7AFZKW9w4yDrEOgI9YD2AM8rF2BenYq6NoAvogGoA+qHnxH/Bm0qRB7/QOMkYxAuAjRgBGKR9jV5OOuTqLJqDHogHosYYU/wGLAedK2tc7yBhEA+AjGoBRyMfWuaRjrQmiCeihaAB6qGHFf8DcwOGSjpY0n3eYUfAqBp6T4ZRgGuk98FCZBkDSfJKOBg4nHWNNEk1Aj0QD0CMNLf6tPgxcImkp7yAd8ioGD5uZ13S47vLv7jUNciUagHwMXUI6ppoqmoAeiAagB6L4v+LtpEmD1vMOMhxJr8VvSLXJjwAO8HoPFsuffbHysXMN6VhqumgCuiwagC6L4j+HycAUSXt5BxmG52qHTb7+P8DzPSh2pct8zEyhIiMVfRJNQBdFA9BFUfzbmg84RtIPJZV4/XIzx21HA+D7HmzmuO0hSZpb0g+BY0jHTphdNAFdEg1Al0Tx78gXgLMllXYH82aO277fcdul8HwPNnPc9hzysXE26VgJ7UUT0AXRAHRBFP9ReRdwlaRVvYMASFoUWNsxwq2O2y6F53uwdt4H3OVj4irSMRJGFk3AOEUDME5R/MdkBeBKSe/2DgJ8Dd/Hqv7uuO1SeL4Hc5P2AVf5WLiSdGyEzkUTMA4yM+8MlRXFf9wM+IaZHeqxcUnLkb59el1nfQ5YyBp+EObFpJ7GbzGbF4FVzexej41L+jrwbfyWo66D75qZeyNXNTECMEZR/LtCwCGSfi9pQYftfx/fm6xubnrxB8jvwc2OEeYj7Qt9JWlBSb8HDiGK/3jFSMAYRAMwBlH8u+79wGWSlunXBiXtAOzar+21EcP/r/J+L3bN+0Rf5H39MtK+H7ojmoBRigZglKL498yapEmDNun1hiRtA/yx19vpwE3eAQpSwnvxB0lb9XojeR+/hrTPh+6KJmAUogEYhSj+PTcROF/Sp3q1gVz8T6WM56sv9A5QkAu8AwDzA6dJ2rJXG8j79vmkfT30RjQBHYoGoEMVK/5XATd6hxijeYBfSDpS0gLd/MGSPkg5xf9eM7vBO0QpzOwm4G7vHMACwBmS3tvNHyppAUlHAr8g7eNVdCPp3FIF0QR0IBqADlSs+F9Jeo74HcCfnLOMx97ALZJ2HO8PkrSGpIuAEyij+AOc4h2gQKW8JwsAf5R0nqQ3j/eH5X34FtI+XVV/Ip1T3kU6x1RBNAEjMbN4DfMCvkN6XK0KryuARVqyCzgAmFVAtvG8TgeWHcNnNxE4grTcrPfvMPi1ofe+XdqLVGC8P5fBr5eBnwCvH8Pvs2zed71/h/G8ZpHOIWr5vRYhnWu8s3X6+o73vl3qK+YBGEYFv/lvbWZPDv4/JO0EHAcs1PdU3TMTuBr4c35dZWYzW/+CpHmA9YF35td6wIQ+5+zEI8Bka/AywEORNBdpZcBJ3lmGMAu4Djgvvy43s5da/0Je52I9YOv8WhffSabG6xlgTzM7dfD/IWkR0nFYlVUKY56AIUQD0EZdiv8ASW8BTgPe1LdUvfUk8MSgP1sCv8lkRuMoM+vZjY5Vlq+TV2Go/Flg+qA/W5T07bgO7gHeY2ZtH8+MJqD6ogEYQt2K/wBJiwMnAT27yzl0ZC0zu947RIkkrUn6ph38XAC838weG+kvRhNQbXET4CB1Lf4A+YDeBvhpT1OF4ZwTxb+9/N6c452jwX4KbNNJ8QfI556tiRsDKylGAFrUufgPJuljpEeS5u1qqjCSjc1sqneIkknaCLjUO0fDvAR82sx+M5b/OEYCqikagKxJxX+ApA2Akynzpqs6utTMej7TYR1ImgJs7J2jIR4GdjGzv47nh0QTUD1xCYBmFn+AfMCvQ5qWNPReDD12Lt6r/rgGWGe8xR/ickAVNb4BaGrxH2BmD5C+aR3frZ8ZhnS1mcW17Q7l9+pq7xw1dzzpktQD3fqB0QRUS6MbgKYX/wFm9oKZfQj4Mul559BdM4BPeoeooE+S3rvQXbOAL5vZh8zshW7/8GgCqqOxDUAU/zmZ2WHA9sz5fH0Yn8Pizv/Ry+/ZYd45auYJYPt8rPdMNAHV0MibAKP4D0/SSqRJg1bp1zZr7HbgrWb2oneQKpI0H3ADsLJ3lhq4jTS5zx392mDcGFi2xo0ARPEfWT5BrA+c1c/t1pABH4/iP3b5vfs46b0MY3cWsH4/iz/ESEDpGtUARPHvXN7ujsD3PLZfE/9jZpd5h6i6/B7+j3eOCvsusKPzuSSagAI15hJAFP+xk/RB4H9Jy6SGzkwBthq8YEwYG0nzAn8BYh6Fzj1PGoH6nXcQiMsBJWpEAxDFf/wkrQ2cCvyHd5YKuAPYoNPpVENn8loWfwVW8s5SAfcBO5nZ37yDtIomoCy1vwQQxb878olkXSCGtIc3Hdguin/35fd0O+ZchS/M7jJg3dKKP8TlgNLUugGI4t9dZvYIsAXwK+8shXqR9K3rbu8gdZXf251I73WY06+ALfKxWqRoAspR2wYgin9vmNlLZvZJ4DPEJC2tXgY+FDf99V5+jz9Ees9DMgP4jJl9sgr3nUQTUIZa3gMQxb8/JG0G/AFYwjmKt6eB95rZX7yDNImkdwF/AhbyzuJsOvA+M7vYO8hoxT0BvmrXAETx7y9Jy5ImDVrDN4mbh0gzq13nHaSJJL2N9Iz7672zOLmRNLnPP7yDjFU0AX5qdQkgin//5RPPO0jfxJrmNtLd/lH8nZjZtaT9707vLA7+BLyjysUf4nKAp9o0AFH8/ZjZs8D7gP1ozn0BU4ANzeyf3kGazszuATYELvfO0iczSMfa+/KxV3nRBPioRQMQxd+fJYdS/29jLwJfATaPR/3KYWbTSJME7QcUfxPcONxJ+tZ/qNXs+m00Af1X+XsAoviXR9JrgB9RvyVwrwU+bGY3ewcJ7UlaHTgGWMs7S5f9EvhCXb71txP3BPRPpUcAoviXycyeNbO9SWsJPOqdpwteBg4iLaYSxb9wZnYTqXh8k3pcknqUNJf/3nUv/hAjAf1U2QYgin/5zOwMYDXgx1R34pYzSLOqfdPM6lBMGsHMXjazg4B1gDOd44zVi6RjZ7V8LDVGNAH9UclLAJL+G/iBd44ONbL4DybpDcD+wMeACc5xRmLA6cC3SpxONYxeflzwQODd3lk6MAP4DXCwmd3vHcZTBS8HfNHMfugdolOVawAkbU86OVdh9CKK/yCSlicNp+9OeZ+hAaeQCv8N3mFC9+VFrQ4A3uOdZQizgBOAg2I66VdVrAmYRbpcc5Z3kE5UqgGQNAm4HXitd5YORPEfhqTlSE3AHsCqznHuAk4CfmtmtzpnCX0gaTXS/vd+YAXnOLcCxwMnmNm9zlmKVLEm4ClgZTN72DvISKrWAPwS+IR3jg5E8R8FSWuRGoHdgKX7tNl7SUX/pBjmb7Y8KvD+/FquT5t9ADgROD4mkupMxZqAX+U1U4pWmQZA0qrATcDc3llGEMV/jCTNRbppa33SQf52YPku/GgjPT/9t/y6yMyu6cLPDTUjaR1gc2Dt/FoRUBd+9N2kc8OVwBXANWY2qws/t1Eq1ATMBFYvfUSxSg3A94Ave+cYQRT/LpO0BOlgXwOYSFp46HUtr0WB54An8+uJln8OFP3rzezpvocPlSdpYWBNXm0GFgUWafnnIsCCpP3t3y2v6cA00lz9V5rZ9L6Hr6kKNQHfN7OveIcYTpUagLuBN3nnGEYU/xBC6IOKNAH3mFk3RjB7prS7sIeUh/+j+IcQQqjKPAFvyrWrWJVoAIA3ewcYRhT/EELos4o0ASXXrso0ACt5B2gjin8IITipQBNQau0CqtMALO4dYAhR/EMIwVnhTUCJtesVVWkAnvEOMMhVRPEPIYQitDQBV3lnGaS02jWbaADGZn7qscpYCCHUxQzSubkkpdWu2VSlAbjNO8AgawDHSOrGBCEhhBDGIZ+LjyGdm0tSWu2aTVUagBKv7byXtLpdCCEEX/uTzsmlKbF2vaJKEwHdgv+iMYMZsIuZneodJIQQmkjSTsDJdGfK5m661cziMcAuOco7wBAEHCfpLd5BQgihafK59zjKK/5QZs2aTZVGAF4L3A8s7J1lCPcA65rZY95BQgihCSQtDlxNmbPEPg28wcye8g4ynMqMAOQ38vveOdp4E3CSpAneQUIIoe4kzU1azrvE4g9wWOnFHyo0AgCQC+zVpNW5SvRTM/ucd4gQQqgzST8GSj3XXk8aES7+UfFKNQAAkt5KWk+7tOc9B3zczH7jHSKEEOpI0keBUs+xLwDrm9kN3kE6UZlLAAPyG/sJ7xzD+IWkDbxDhBBC3UhaH/iFd45hfKIqxR8q2AAAmNlvgR9452hjXuBkSUt7BwkhhLrI59RTgPm8s7Txw1ybKqNylwAG5JtAziLN/1yia4CNzewF7yAhhFBlkuYHpgDremdp48/A9mY20zvIaFRyBAAgv9G7AXd6Z2ljHeDX3iFCCKEGfkm5xf9OYLeqFX+ocAMAYGZPADsCpT5usYekL3mHCCGEqpL038Ce3jnaeAp4T65FlVPZSwCtJO0AnEaZDc0s0tDQud5BQgihSiRtTbrUO7d3liHMIhX/M72DjFWJBXPU8gfwDe8cbcwF/E7SSt5BQgihKiStCJxImcUf4BtVLv5QkxGAAZJOBD7gnaON20jPhz7pHSQ0g6R5SVNnL5T/2fpq/TNIU5c+k//Z+nrlz8zspX7mD82Vp36/gvIWgBvwezPbzTvEeNWtAVgAuAxYyztLG2cBO5rZLO8gofokTQZWAVZu+ecKwKKkwj5vlzf5EqkZeAK4C7id1NjeDtxmZg92eXuhgSTNRbqku4N3ljauAzYys+e8g4xXrRoAAEnLkKYLXtI7SxvfNbOveYcI1ZAff1qROQv9ypS3MNbTpGZgtsYAuDMehw2dknQoUOo58lHSNL//8g7SDbVrAAAkbQRcCMzjnaWN3c3sd94hQnkkLQhsCGwBbE56nLTUa6CdmkmaF+Oi/Jpah29PofskfYB03b9ELwNbmtml3kG6pZYNAICkT1LueszPk4aQ/uYdJPiSNB+wPq8W/LfT/aH70rwMXElqBi4E/mpmL/pGCt4krQVMBRb0ztLGp8ys1JoyJrVtAAAkHQF82jtHG/eRhpIe8Q4S+ievaLkuqdhvAbwDWMA1lL8XgMt5dYTgKjN72TdS6CdJS5Iu3S7jnaWNX5jZPt4huq3uDcA8wF+ATb2ztHEZsEXcXV1/eRGTvUhPqSzuHKd0T5DWej/WzC7zDhN6K5+nLwA29s7SxhTgnXVsSmvdAABIWoJ0/fGN3lna+JWZfdI7ROg+ScsCHyIV/hVdw1TX3cBxwHFmdo93mNB9ko4E9vbO0cY/SSO107yD9ELtGwAASW8lfdt+jXeWNj5jZj/3DhHGLz+//D5S0d8YkG+iWrkMOBY4qapTr4bZSfo0cIR3jjaeAzY0s+u9g/RKIxoAAEm7An/wztHGDGArM7vYO0gYvbwy5btIRf89xDX9XnsROJ3UDJxrZjOc84QxkLQJcD7lPq31fjMrtWZ0RWMaAABJB1PulMHTSUNN//AOEjoj6TXAp4AvAJOd4zTVI8DhwBFm9rR3mNAZSW8k3fQ30TtLG4eYWam1omua1gAIOJW0gmCJbgTeYWbPegcJ7UlaBPgM8Hngdc5xQvIY8BPgp3F5oGx5rovLgbd6Z2njDNIiP7Uvjo1qAAAkLUyaY/rN3lna+BPwvibsfFUj6XWkov8ZYBHnOGFoTwE/B35kZtO9w4Q5STqJdJ9MiW4hrdnSiNGkxjUAAJKWJw0/LeadpY39zOxQ7xAhkTQJ+CJpuL/UG0nD7J4DjgR+YGYPeYcJiaT9gG9752jjcWA9M7vLO0i/NLIBAJD0TuBcypxmdQbpUsDV3kGaLK8r8WXg48D8znHC2LwA/Ab4Xl3mb68qSTuSLsGW+GTMTGA7MzvPO0g/NbYBAJC0L+kGohLdCawV9wP0n6TFSN9SPkG5dyiH0XkZ+BVpDffHvcM0jaQ3ky69lraA1YD/NrMfeYfot0Y3AACSjgY+7J2jjV+aWakTZNROvkn0I8D3KPfu5DA+04CvAEfHfTb9kRvqq0hLVZfoWDMrtQb0VDQAaTGWS0iLsJRoRzM7wztE3UlagzQhyYbeWUJfXAbsY2Y3egepszxHxjnAVt5Z2rgK2KSpi1HN5R3AW/7gdwYe9M7Sxq/zdMahByQtLOlw4Fqi+DfJhsC1kg7PTwaF3jiMcov/Q8DOTS3+EA0AAPku4Z1JM4yVZklgP+8QdSRpN+A2YF9ggnOc0H8TSJ/9bXlfCF0k6cOkx2ZL9CKp+Jf6xa8vGn8JoJWkvYBjvHMM4UVgBTO73ztIHUhamfSs+JbeWUJRLgD+08xu9w5SdZLeTrq0Op93ljY+amZHe4fwFiMALczsWKDEO0HnA/b3DlF1kuaWdBBpxsUo/mGwLYEbJR2Ur12HMZC0FHAy5Rb/H0fxT2IEYJB84J9NWtylJDOAVczsbu8gVSRpMvA7YBPvLKESpgAfbPoQ8WhV4Kbq84FtzGymd5ASxAjAIHnH2A0obTaoCcBB3iGqSNLWwPVE8Q+d2wS4Pu87oXNHUW7xvxv4QBT/V0UDMIQ8UciOQGnzQe8uaTnvEFWRh/wPIT2GFM/1h9GaCJwj6ZC4JDAySZ+n3DlVniYt8POYd5CSRAPQhpndCuwBlHSNZC5gd+8QVSBpaeAi4OuUOfVoqAaR9qGL8j4VhiBpK9IjfyUyYE8zu9k7SGmiARhGnoCntDWh9/AOUDpJ25CG/Df2zhJqY2PSJYFtvIOURtIKwO8pc10VgAPN7DTvECWKmwA7IOn3wPu9c7RY28yu8w5RGkkTgINJU73Gt/7QC0aaKnp/M5vhHcZbBZZX/yPw/pj2eWgxAtCZj5K+UZYiRgEGkTSRNOT/VaL4h94RaR+7KO9zjZXXzvgt5Rb/G4CPRPFvL0YAOpSXhr2GMm4mewBYxsxmeQcpgaRlgT8DK/kmCQ1zB7C1mf3DO4gHSR8D/tc7RxvTgXWb+tl0KkYAOpTXEt+VtKyot6WBdbxDlCAv4nM5UfxD/60EXJ73wUaRtCjwXe8cbcwA3hfFf2Qx//komNkUSZ8FfuGdBViftJJVY0naBDgdWMQ7S2GeAW4nfUN9LP/704NerX8GaZ32hfI/W18Df7Y4qeCtnP8sJEsBUyTtaGZTvMP00cGUMRo6lM+Z2cXeIaogLgGMgaQjgb2dY5xgZo29F0DSzsAJwPzeWZwYcB+p0N+WX7cDt5nZA73ccH4cbmVglUH/XIbm3n/xArC7mZ3iHaTXJK0OXEeZd/3/ysw+6R2iKqIBGANJCwC3AMs6xrjbzFZw3L4bSZ8EjqDME1CvzCLd1HQh6WbHS83sKd9Is8t3hG8EbAFsDqxFsy4zzgT2MbNfegfpJUnfId0IWZqpwJZm9pJ3kKqIBmCMJO0IeD9bOtHMpjtn6CtJBwDf9M7RBwbcTCr2FwKX5BkqKyNfJ96U1BBsAaxGM0YIDjSzb3mH6BVJU4ENvXMMch+wjpk96h2kSqIBGAdJpwPvdoywg5md5bj9vpE0F/AzYB/vLD00i7Qk7XHAuWY2zTlPV+XH5rYB9iStvFfn0YEjgP+q25M6kuYHngTm9c7S4nlgIzP7m3eQqokGYBzy42d34TcU/XUz+47TtvsmF//jSYs01dHfSUX/+F5fvy9Fvo9gD1Iz8BbnOL1yIrBHnZqAfOPtJd45BvmgmZ3oHaKK6tyB91x+zORqxwil3oXbbT+jfsX/UeDHpFkdVzez7zel+AOY2QP5d14dWJv0XtRt+HY30r5bJ6Xdd/TdKP5jFw3A+P3ZcdtLOG67L/I1/zoN+19Cumy0tJl9PqZ0BjO7zsw+T5rf4t2U9w1zPPbJ+3BdPOsdoMXZwH7eIaosGoDx82wAXue47Z7Ld/vX5Ya/c4GNzWwzMzsz5pGfk5nNyO/NZqTFd851jtQt38z7ch084x0gu4302GVtLq94iAZg/K4i3RTjobYNQH7O/wjvHONkwCmku5O3NbOp3oGqwsymmtm2pBkvT6GsZbnH4oi8T1fd0yP/lb74mJl5nXdrIxqAcTKzmcATTpuvZQOQbzQ6geo+5z+TlH91M9vFzK71DlRVZnatme0CrE56T2c6RxqruYET8r5dZaU8irqVd4A6iKcAukDSP4A3Omx6upnV6kbAPK/6FKo7ve/ZwL5mdqd3kDqStCLphsHtvLOM0ZPAJmZ2o3eQscgrAN4NLOcc5VHSgmgvOueotBgBqLbnvAN0U36s8lyqWfzvA3Yxs+2j+PeOmd1pZtsDu5De86pZBDg37+uVk5fWPdY7B7Ak8CHvEFUXDUC11eYaWJ4k5s+kxVWqZAbwA2DVJswDX4r8Xq9Keu+rdkPlUsCf8z5fRcdSxj0Zn/cOUHXRAIyTpHnwexyvFg2ApAnAyVRvSd+pwFpm9iUzK+nxqEYws2fN7EukNQeqdoPlSsDJed+vFDO7B7jUOwewmqRtvENUWTQA47cB8BqnbXvdfNhtB5MWkamK6cBHSddy/+4dpunyZ7AJ6TOp0toYG5H2/Sr6qXeA7AveAaosGoDxsJ+F9AAAIABJREFU87wbtfIjALmD/4p3jlG4BFjDzI62uIO2GJYcDaxBtSYS+kpFv8WeDNzqHQLYKi9PHMYgGoDxe6fjtis9ApDngz+OaqwQN4v0bW1LM3vIO0wYWv5stiR9VlWYJEbAcflYqIzc/H7XO0cWowBjFA3AOEiaBKzrGKGyd5tLmhv4HdWYzvgRYGszOyDP+xAKZmYzzewAYGvSZ1e6JYDf5WOiSk4A/uEdAthd0uu9Q1RRNADjcxC+k9VUefnLb5Gmey3dRcCaZna+d5AwOvkzW5P0GZZuY9IxURl5OuvDvHOQlibeyztEFcVEQGOUrztdh18DYMAiZlbK1Jwdk7Q1cA5lD/0PDPl/K+Ybr7a8nPQBwP6U/aXHgG3NzHN9kVGRND9wLzDJOcqtZvZm5wyVU/LBULof4/vt/86KFv/JlH/d/zng3WZ2UBT/6jOzWWZ2EGmlwZInzxq4H2Cyd5BOmdkLwI+8cwCrSlrfO0TVRAMwBpJ2BbZwjlG54f+W6/4lT4DyGOlGv7O9g4Tuyp/plqTPuFQTqd79AL+gjDUCPuYdoGqiARglSVtSxlSYlWsASEOwJS+Gch+wkZld4R0k9Eb+bDei7GmENyEdK5VgZs9QxrwAH5C0oHeIKol7AEZB0lbAacAC3lmAdc3sGu8QnZK0MnAj6YadEt1CutP/fu8gofckvYE09XSp141fAt5qZrd5B+mEpMWBfwILOUfZy8yOc85QGTEC0CFJOwCnU0bxv7dKxT/7OeUW/78CG0fxb478WW9M+uxLNC9whHeITpnZY8BR3jmIywCjEg3ACCQtJ+kPwBnA/N55spO8A4yGpN1I115LdBbwznwCCw2SP/N3kvaBEm0uaXfvEKPwQ8B7ed5NJXkvVVwZ0QC0IWlRSd8jTXe5q3eeQSrTAEhamHRiKNFZwE5mVvKd4aGH8me/E+U2AT+UVInlsfMsjP/nHEPEKEDH4h6ATNJrSTcHbZZfa+P7mF87d5nZit4hOiXpcGBf7xxD+Cvpm38U/0C+eex80uJepfmZmX3WO0Qn8rfvOwDvVQ6fBh4c4vVAy/9+KD/G2Fi1bwDycr2TgMktr6UH/ftkYDGvjKN0qJnt5x2iE5LWAK7F/2Qw2C2ka/4x7B9ekW9ku5TybgycCaxnZpV48kfSccCHvHN06DHaNwgDr4fzrIe1U9kGIM/uNZH2BX3gzydS9qQzozELeLOZ3e4dZCSSRDqZbuidZZD7gHfEDX9hKPnpgMuB//DOMshVwAZVmJgqN/43eOfoolnANIZuDlpfj1ZthdAiG4DciQ9VzFv/fRLlfbPstZPM7APeIToh6aPAb7xzDPIY6Tn/EpYxDYWStCowFVjcO8sgnzKzEu60H5GkG4GmLdM7A3iIES49mFkJkyYBfW4AJC3E8N/YB16l3G1fEiM9F3yTd5CRSFoMuJ2yZvx7jjTDX0zyE0aUp5W9AChpYpnHgZXNbJp3kJFI+irwHe8chXqB4e9NGGgUnul1kK40AJLmo/0QfOu/LzzujTXXKWa2i3eITkj6ObCPd44Ws0hz+8f0vqFjkrYjPf5b0tNSvzGzj3uHGImkN5IWCarL5VcPAzcyDnvpwczG/OjlqBqAfKf8JsDbSHfJL0cq7K8ba4DQsbXN7DrvECORtAxwFzCPd5YW38yLwYQwKpIOAg70ztFiJmkU4G7vICORNJXy7gGqo3+TmoF7SVPEXwtMMbOnRvoPO2oA8nDY3sD7KWtIrCnOMLMdvUN0QtL/AP/pnaPFRaTH/Yq/eSqUJ99sfD6wuXeWFr82s094hxiJpH1IM4CG/nuONF/MUcNd9hy2AZC0BGmpxz27Hi90agawjpkVf1etpEmkLrSUezgeAdY0s4e9g4Tqyvv19cDrvbNkLwHLl/4kS64fD9G8m7VLcxzwBTObPvj/aHttS9LmpFnwovj7OqQKxT/7IuUU/1nAh6L4h/HK+9CHSPtUCeYFvuQdYiS54JznnSOwJ3CrpM0G/x9DNgCSdgLOAZboba4wguuAQ7xDdELS64BPeedocYiZne8dItRD3pdKOhY/IWlJ7xAdOME7QABSLT8nL2r3ijkaAElbA38E5utTsDC0l4APm9nL3kE69HngNd4hskuAb3qHCLXzTdK+VYIFSMdc6U4jXY8O/uYHTsmj+8CgewAkTSZd6yrp+e2m2s/MDvUO0Ym8WMk/gRIWLZkOrJEXJgmhqyQtBdxIGaOjTwFvNLMnvIMMR9LvgN28c4RXPAKsZWYPDR4B+D+i+JfgcuB73iFG4TOUUfwBvhTFP/RK3rdKuf7+WuC/vEN0IC4DlOX1wNHQMgIgaRPKGd5qsjuBDasw2xeApNeQvv2XMBfEVGCTqs3HHaolr3MxhbR6qLd/A8v2Y9a4scoLsj1MeVMrN92mrSMAB7jFCAMeAbapSvHPPkUZxX8G8Oko/qHX8j72adI+5620m2/nkO9j+qN3jjCHA2RmAytg3eedpuGeATYzs2u9g3RK0tzAv0izQXr7gZmVMjQbGkDSYaRHX709CCxjZjO9g7QjaVPgYu8cYXYDIwDbuqYILwPvrVLxz95FGcX/PuAg7xChcQ6ijC9Ok0nHYsmmAEVPXNREAw1A6TtPnb0I7G5mVZwwYy/vANnnzOxZ7xChWfI+9znvHFkpx+KQ8mWT33rnCLMbuARwLWlxn9Bf04GdzOwy7yCjlReGepj0PLKns81se+cMocEknQVs5xzjeWBSJwvAeMmPmd9LmskwFGBgBGAp1xTNdAewfhWLf/Y+/Iv/TGBf5wwh7EvaFz0tQDomi2VmDwLHeucIrxoYAZgBzO0dpkGmADub2WPeQcZK0iWkpaE9nWBmezhnCD0iaVlge9KSspOBSaRvjw+RRp+uA840s+udIr5C0vHA7s4xppjZps4ZhiVpReA2hlmHJvTPQAMQj071hwH/A3zRzF7yDjNW+cR8DyDHGAasbmY3O2YIXZafsd8V2A94a4f/2f3AT4Cfm9nzvco2HEmrATfhf0y8ycz+4ZhhRJJ+C0TjXoDowvrndmBjM/tslYt/9iF8T3QAp0bxrxdJ7wCuJq1j3mnxB3gDcBhwl6SP9iLbSPK+eKrHtluIdGyWbm/S5xycxQhA780gnZy+aWYveofpBkl3ACs6x1ingo9NhjYk7Q38DJinCz/u18B/9rvRlvQ24Jp+bnMId5rZSs4ZRiRpImnK8xW8szRZjAD01tXAumb29RoV//XxL/7nRvGvB0lzSfoZcCTdKf4A/w+4ID+p0jd5nzy3n9scwor5GC1anu10a9Lsp8FJNAC9cSmwnZmtV8INSl1WwvPGJa3LHsZI0lykb+uf6cGP3wg4Pm+jn0rYN0s4RkdkZvcAbyNd8gkO4hJAd50DHGpmU72D9IKkCaSO3XNRj0vMbDPH7YcuaCn+vb5m/10z+1qPtzEbSRcDnnfjPwa83sxKWKugI5K2It0gXfzlizqJBmD8HgZOA46s4bf92UjagHTdztO7zexM5wxhHPpY/Af09X4RSTsAZ/Rre228w8z+6pxhVCTNS3qUcktgc2Bp30T1Fw3A2NwNnJJfV5jZLOc8fSHp6/gOcT4KLF2lbzZhdg7FH+AcM+vbTH15pOwBYMl+bXMI+5vZtx23P26SViKNpCxHagYmt7wWdYxWGxO8A1TAs8DNwN9Jz/leYGY3+UZys4Xz9k+I4l9dTsUfYFtJ65vZFf3YmJnNkHQCvrNUbgFUugEwsztIM6bOQdKCzN4QDLwGNwoL9iVsRcUIQHpM72FSx/5gft0P3Eoq+vfEGvMgaT7gcXyn/13bzK5z3H4YI8fiP+AnZta3gixpLeBv/dreEF4EFjWzFxwzuJO0CHM2BYMbhaXo3hMolVLnBmAWMI1Xi/qDzF7kB17TmjKEPx4FrOf9dzNb3XH7YYwKKP4Ad5tZX585l3QT8JZ+bnOQLc3sQsftV0KefXIJhm4UWpuFJanZk3NVvQTwOEMX89Yi/3AMF3eV9/D/cc7bD2NQSPEHWF7ScmZ2bx+3eRzwvT5ub7AtgWgARpBHeKflV9sbufO9Ha9n6EsNrX/m+ZTUqJQ2AvAMI39jf7Dpw1oeJE0BNnba/CxgGTN7wGn7YQwKKv4DNjezi/u1MUlLA//C71vjFWa2gdO2G0vS/KTLCiM1Cgt5ZRzgPQJwGbA/rxb2p53zhCHkG27e7hjhgij+1VJg8Yc+L3tuZg9IugDYqp/bbbGOpIXjvNpf+QvqvfnVlqSFebUpOJi06mVfeV/PuN/MLjKz22MnLdqGpGVYvcTwf4UUWvzB59Exz313Av5Ldoc2zOzpXPsuIt143nfeDUCoBs/r/4b//OqhQwUXf4DpDts8l7QPe/G+dycULBqA0InNHbd9c144JBSu8OIP6XHfvsr7ruey1Vs6bjsULhqAMKx8Q8s6jhEuctx26FAFij/APU7b9dyH1+j3qoihOqIBCCNZEZjbcfvxGFPhKlL8b3S8kdRzHxaxwE5oIxqAMJJVHLc9C7jEcfthBBUp/uC7OM8lpH3Zy8qO2w4FiwYgjMTz5HGDmT3uuP0wjAoV/1nAb702nvfhG7y2TzQAoY1oAMJIPEcAYvi/UBUq/gC/M7PbnDN47svRAIQhRQMQRuJ58ogbAAtUseI/A/imdwh89+VoAMKQvGcCDOXzOnkYcKnTtkdF0rLADsBawCTSjHMvkR47e5A04+W5ZvZvp4hdU7HiD/AFM7vTOwRpXzbSTXn9tqIkxaqmYbBoAEJbkiYDCztt/j4ze8pp2yPKC4N8hLTm+2oj/PVPAzMlTQUOMbO/9DheT1Sw+P/azH7mHQLAzJ6SdB+wjMPmFwTeANznsO1QsLgEEIbjef3/dsdtD0vSzsAtwK8YufgPmBvYFDhP0oWS1uhVvl6oYPE/F/hP7xCDeO7TcRkgzCEagDAcz5OG901bc5A0l6TDgJNJ8yOM1ebAFZI+0J1kvVXR4r+Tmb3kHWQQz306GoAwh2gAwnA8RwCKagAkLQCcBXyxSz9yAeBESQd36ef1RIWL/4veQYYQDUAoSjQAYTieJ43SLgH8BtimBz/3G5IO78HPHbco/l0XlwBCUaIBCMNZwXHbxYwASPo6sFsPN7FvaU1AFP+e8Nynl3fcdihUNABhOB7rpwM84zhv+2wkvQXoxzB9MU1AFP/eyPv0M06b9zqWQ8GiAQjD8XoEsKTh/2/Rv+PEvQmI4t9zXvu217EcChYNQBiSpHmBeZ02f4fTdmcjaS1g5z5v1q0JiOLfF1779rz5mA7hFdEAhHY8vzE85rjtVrs7bbfvTUAU/77x3LdjFCDMJhqA0M5Cjtv2uk462A6O2+5bE1DB4n8O1Sz+AE87bjsagDCbaABCO54nC8+TJACSlsF3HgToQxNQ0eK/c0WLP/g2t55NfShQNAChnUY3AMCy3gGynjUBUfxdxAhAKEY0AKGdpjcAS3kHaNH1JiCKv5toAEIxogEI7TS9AVjcO8AgXWsCovi7igYgFCMagNBO028CLOVJhFbjbgKi+LuLBiAUIxqA0E7TRwAe8g7QxpibgCj+RYibAEMxogEI7TS9AbjHO8AwRt0ERPEvRowAhGJEAxDCEMzsfuBm7xzD6LgJiOIfQhhKNAChnfimAmd6BxjBiE1ABYv/2dS7+Dd9ZC0UJBqA0E40AHACYN4hRtC2Caho8d+lxsUf4ubaUJBoAEI7jb9ZycxuBE72ztGBOZqAKP7FihGAUIxoAEI7MQKQHAjM8g7RgVeagCj+RYsGIBRjgneAUKxoAAAzu1nS/sAh3lk6sK8kgEWI4l+qaABCMaIBCO1EA5CZ2aGSVgd2887SgX29A4xC04o/RAMQChKXAEI70QDM7mPAVO8QNdLE4g9xE2AoSDQAoZ3G3wTYysyeB7YlmoBuaGrxhxgBCAWJBiC043myKG0hHgDM7BmiCRivJhd/8N23owEIs4kGIAzJzF4CXnLa/EpO2x1RSxNwqXeWCjqLZhd/8Nu3X8rHdAiviAYgDMfrG8PKTtvtSG4CtiOagNE4C3hvw4s/+O3b8e0/zCEagDCcJ5y2u5CkpZ223ZFoAkYlvvkDeZ/2ur/F61gOBYsGIAznLsdtFz0KANEEdGig+Mfws+8+fbfjtkOhogEIw7ndcdurOG67Y3FPwLCi+M/Oc5/2PJZDoaIBCMO5zXHbxY8ADDCzZ4kmYLAo/nPy3KejAQhziAYgDCdGADrU0gRM8c5SgCj+Q4sRgFCUaADCcGIEYBRyE7AdzW4Covi3FyMAoSjRAIS2zOxB/B4fWkZSiVMCD6vhTUAU/zbyvryM0+afA+532nYoWDQAYSRe3xwEbOS07XFpaBNwJlH8h7MRaZ/2cKeZmdO2Q8GiAQgj8Rw63MJx2+PSsCbgTNIkP1H82/Pcl2P4PwwpGoAwEs/7ADZ33Pa4tTQBl3hn6aEo/p3x3JejAQhDigYgjMTz5LGWpEUdtz9uuQnYnno2AVH8O5D34bUcI0QDEIYUDUAYiecIwFzApo7b74qaNgFR/Du3Kb7n2mgAwpCiAQgjuROY6bj9yt4H0KpmTUAU/9Hx3IcNuMNx+6Fg0QCEYZnZC8A1jhFq0QBAbZqAKP6j57kP32hmTzluPxQsGoDQiYsct72apImO2++qijcBUfxHKe+7qzlGuNBx26Fw0QCETng2AAK2cdx+17U8HXCxc5TRiOI/Ntvg9/w/RAMQhuHdALxB0uaSVq7irG8NMhV42XH7ezpuuyfM7DnSSMDFzlE6cQZR/MfKc9+dSTPmoagkSQvn2rc58AaXDGaGpFJmiXoGeLDl9cCgf38QeDBflw59JOlS/GbmmwUsY2YPOG2/ZyQtSJpCdzPnKO2cAewaxX/0JC0N/Au/L1pXmtn6TttuLEnzA5OHeC096N8X8so4YIJ3gEEWAlbKr7YkPU6b5qDlzx82sxk9TdssF+HXAMwF7AF832n7PWNmz0nanjKbgCj+47MHvqOsMfzfRZImAJMYupi3FvnFvDKOVmkjAN00C5jGyCMK08xsllfIqpC0Gb73AvzdzFZ33H5PFTgSEMV/nCTdBLzFMcJWZna+4/YrQdJcwERG/sY+Ef/L5l1V5wagUzOAh5m9ObgfuBX4O3BPLKQBkuYDngDmd4yxtpld57j9nspNwJn4T4EcxX+cJK0F/M0xwovAYmb2vGOGIkgS8CZSM7Yq6Xp7a5GfRHmj4X3RyF96kAmkHaLdTRjPSrqZ1AzcBFxgZjf1K1wpzOxFSZfj+0zzXkBtG4B8OWAHfJuAKP7dsZfz9v/a1OIvaXVgS2B1UtFfDXiNa6hCxQjA2NwNnJJfVzTlEoKkbwAHO0Z4FFi67vd2OI4ERPHvgnyt+AFgSccYB5iZ57HaN3kIf31g5/xa3jdRdUQDMH4PA6cBR5rZ9d5heknShqRHAj2928zOdM7Qcw5NQBT/LsmjOGc4x9jIzC5zztBTktYEPgW8hzSMH0YpGoDuOgc41My8i2RPSJqH9C3cc4W+S8xsM8ft900fm4Ao/l0k6WJ8F7F6AljSzDzn7ugZSRsBXwe29c5SdbW6o7EA2wKXSpoiqXY7Zz6hnOQcY9N8Aqi9PFnQDvT26YvTieLfNXnf9F7B8qQ6Fn9J20qaAlxKFP+uiAagNzYGzpZ0VR6mqpNjvQMA+3kH6JeWJqAXlz1OBN4Xxb+rStg3SzhGu0bSmpKuAs4mnVtDl0QD0FvrAldLOjQ/Rld5+bri3c4xtpH0NucMfZObgPcA3+vWjwT2M7MPRvHvnrxPeq9bcXddrv1Lmk/SocDVpHNp6LJoAHpvAvA14IZ8E10dHOcdgDK+afWNmc0ys68CuwD3jONH3QZsZ2aHdidZaFHCPlnCsTlu+Vx5A+ncGY+r90jcBNhfBvwP8MUqf/OS9Cb8RwEMWN3MbnbO0Xf5ZsxPAF8EluvwP7uDNIJwjJnN7FW2ppK0GmmeEM+V/wCWN7PxNIiuJM0L/AD4DP7vZe0NNAAzgLm9wzTIFGBnM3vMO8hYSZoKeI9onGBmezhncJULzw7AOsBSpMehZpEeT30IuBI408zucAvZAJKOB3Z3jnGZmVX2BllJi5PmVtnEO0tTDDQAD5JOHqF/7iANxXp/kx4TSZ8EjnKOMRNY1czudM4RGkzSiqSpw72/RO1tZr90zjAmkpYn3eQ37EJwobsG7gF4yDVFM60EXFHh+wJOIs037mlu4MfOGUL4Mf7F/0X8H9Edk3wOvIIo/n030ABU9ppRxS0BXCBpV+8go2VmT5CeIfe2naSdvUOEZsr73nbeOYDT8zFZKfncdwHpXBj6bKABOM81RbPNB5wgaSvvIGNQyvPGP5EUi32Evsr73E+8c2SlHIsdk/Qu4ATSOTA4GGgAznFNEeYB/pSXEK2Sc4FHvEMA/wEc5B0iNM5BpH3P2yOkY7Ey8pwJfyKd+4KTuQDM7H7SMEzwszBwlqQ3egfpVF6V73DvHNm+kt7iHSI0Q97X9vXOkR1epRUy82PEZwELeWdpuPNllqYAkLQJcIlvnkCaqGXDqjwiKGlh4B/A4s5RIK1UuIkN7NQh9IAkkR7lLeGRu8eBN5rZ095BOiFpInAZsKJ3lsA7XpkJ0MymEPcClGAV4JS8xnXx8omnlOugGwEf9g4Rau/DlFH8AX5aoeI/N3AqUfxLcIaZ/VWtX5YkTQauBya6xQoDvmxmh3mH6ISkRYF/Aq/1zgJMB9Yws3i0NXSdpKWAGynjrvVnSN/+qzJa+HXgEO8cgYeANc3s0dm+ZZrZg8CepAlWgq+D8yxvxcuPH/3cO0e2BOmpikqMoITqyPvUCZRR/AGOqFDxXx040DtHYAawu5k9CkMsBmRmfwZ2xX+Sl6abDzhGUlUWwvgR8Jx3iGwz4ADvEKF2DiDtWyV4nnTMFS+vXXEMMK93loZ7gTQF/cUDfzDktyQzOxXYljScGvy8jTJWGBuRmU0HjvTO0WJ/SVt4hwj1kPel/b1ztPi1mZXwCG4n9gOq9ohz3UwHtjWzM1v/UMPdMC1pCVKXuWdvs4VhvAysa2Y3eAcZSb4+eg8wv3eW7GHgrQPDXSGMhaQlSUvTTvLOkr0ErGBm93kHGYmktwLXEEv6ejoO+EL+kjabYa+Tmtl0M9sL2AA4mnKGeJtkHuBg7xCdyDfe/cY7R4tJwG/jfoAwVnnf+S3lFH+AY6tQ/LODieLv4TlSzd7AzPYaqvjDCCMAc/xl6bWkpRrfBqxNWot8MvC68aYNI3qbmf3NO8RIJC0D3EVZM3x9w8zi7uMwapL2A77tnaPFTGDlKqwimmc2Lf6cVQP/Bh4E7iW939cCU8zsqZH+w1E1AG1/iDQfqREY/Fp60L8vPO6NNddpZraTd4hOSPo5sI93jhYzSde//uIdJFRHXp/jHPxX+mv1GzP7uHeITkg6GYiFusbuaVJhH3g9MOjfHwQeNLMx37DflQag441JCzF0YzD4Vco15JIYsFZF7gVYDLiDch6XgvTM9OZmdo13kFA+SesAF1HWdLWPk779T/MOMpL82N8NgLyzFOgFhijkDCr0ZvZMr4P0tQHolKTFGXk0YRLNu7Z0spm91ztEJyR9DPhf7xyDTAM2MrM7vIOEcklaiTStdGkTon3azEp60qYtSb8H3u+do89mkG48HvZbe0lzNxTZAHQi35wzkeFHFJbOf6cuXagBq5nZrd5BRpLnS58KvMM7yyD/JK218IB3kFAeSUuT5qovbVGuq4H1zWyWd5CRSFoZuIURbjKvECN9eRhyCL7lz6dV4fNpVdkGoFN5EopJDD+aMBlYzCvjKB1qZpWYGyA/AnQtZV1DBfg7adGgx72DhHLkS1dTgNJWlZwFrGdm13oH6YSkQ4Cve+fo0OO0L+gDr4fN7GW3hD1U+wagU/kJh41IM31tRnrKobTCBXCXmVVmMQ1JPwE+651jCJcD7zSz572DBH+SFgDOp7wRK0hT/v6nd4hOSboTWME7xxBmku6Svzi/pnZyp3ydRQPQRl7g5mvA50jT8pakEo8EwiuN1e2U9Rz1gLOAnaq0lnrovjzd9qnA9t5ZhvAo6ca/J7yDdELS2qRRv5K8SFqx9DtVeR/7pS7XaLrOzJ4ws68AqwJ/9M4zSGVurskd9he9c7SxPXCqpAW9gwQf+bMvtfgDfKliRau0c9MfgVXN7CsVex/7IkYAOiRpB+APlPGI4r1m9ibvEKMh6WJgU+8cbfwV2KGku3ND7+Wnjc4kzXRaoilmVuoxMyRJ95AmiPP2AvC+wXPfh9lFAzAKeWKQ04AFvLOQ1geozDPteWnj6yhrhsBWtwBbm9n93kFC70l6A/Bn4M3eWdqYQVqz/WbvIJ3Kcydc7Z2DtFLie2Lir5HFJYBRyDvUu0k7mLfNvQOMRj6RHeadYxhvBi6XtKp3kNBb+TO+nHKLP8D3q1T8sxLOSc8D747i35loAEbJzC4A9vLOQXpKoWoOJJ14S/UfwFRJ63sHCb2RP9uppM+6VJeTjpWqKeGctGc+R4cORAMwBmb2R8B7JyvhYBuVfLf9bqTFK0q1OHCBpO28g4Tuyp/pBaTPuFT/Bnar6JMp3uekv5jZn5wzVEo0AGO3L+m5Ui8rSqrc4kp5GdO9SLNrlWpB4AxJB8ZSwtUnaS5JBwJnkD7bUhmwV4WW+n1FPhd5zk8yg3RODqMQJ7cxMrO/A0c5RhCwpuP2x8zMzqbs+wEgHRsHAedJer1zljBG+bM7j/RZln6+OywfG1W0Jr5Trh9hZrc4br+SSj8gSncwaZpOL95DbuOxH2nO9dJtCVwvaTPvIGF08md2PekzLN1lpGOiqjzPRbOAQx23X1nRAIyDmT1MerTNS2WmBB6sIvcDDJgEnC9p/7gkUL485L8/aWrfEmegHKzK1/0HeJ6LrjOzRxy3X1lxMhu/8xy3vajjtsctP3O/J2XfDzBgbuA7DJGVAAAf4klEQVRbwLmSlvQOE4aWP5tzSZ9ViWt5DGakO9erPv+E57nI8xxcadEAjJ/nzreI47a7wszOAb7vnWMUtgJukPRB7yBhdvkzuYH0GVXF9/MxUHWe56JoAMYoGoDxuxx41mnblR4BaPEN0rPZVTEJOEHSBZJW8Q7TdJJWkXQBcALVGPIfMJW079eB17noWcqeW6Ro0QCMk5m9hN917MqPAMAr9wPsAtzhnWWUtgBulPSdWFCo/yQtKOk7wI2kz6JK7gB2qfh1/1Ze56Lp+RwcxiAagO7wevylFg0AgJlNA7YGHvLOMkrzAF8FbpW0k3eYpsjv9a2k977U9SXaeYi07sQ07yBdVJtzUZNEA9AdXu9jrb51mtk/gG2AJ52jjMUywCmSzpRU2aczSidpRUlnAqeQ3vOqeRLYJu/rdeJ1LqrCDcTFigagO7zex9qtb21mNwI7kpbzrKLtSaMBx+cVEEMXSFpN0vGkb/3be+cZoxeAHfM+Xjde5yLPyYcqLxqAcZI0D37DX1V4hn7UzGwKsDu+Uy2Px9yk/DdJOlnS27wDVZWkt0k6GbiJ9J5W4dG+ocwEds/7dh15nYsWlVTVfcJdNADjtwF+w1+1bAAAzOwUYB/vHOMkYGfgGknnSNrIO1BVSNpI0jnANaT3sOrf9PbJ+3Rded4IvZ7TtisvGoDx83zmuLYNAICZ/ZJqLos6lG2ASyVdLGkHSRO8A5VG0oT83lwMXEp6z+rgwLwv15nnuWhrx21XWjQA4/cux21Pd9x2X5jZt4AjvHN00aakVekekHS4pLW8A3mTtJakw4EHSO/Nps6RuumIvA/Xnee5KBqAMYoGYBwkLQus4xihTo8RDee/gBO9Q3TZkqTlS/8m6SZJX5a0tHeofpG0dP6dbwL+Rnov6jbF8omkfbcJPM9F6+ZzcRilaADG56f4vod1vJt4DmY2C9iDeo0EtHoL8D3gX5LOk7SnpIneobpN0sT8u50H/Iv0O7/FOVavHAHskffdJvA8F81NOheHUZJZPEY5FpJ2BE5zjjHRzGp/GaCVpAOAb3rn6AMDbgYuAi4ELjGzx30jjY6kRUnD+Vvk12pU/2a+ThzYkGH/V0haAv8RyfeY2enOGSolGoAxkLQAcAuwrGOMu81sBcftu5H0SdI3rCY9/jOLtNDNhaSm4FIze8o30uwkLQxsRCr2mwNr0axRxpmku/3rfsPfkCTdBSzvGOEfwJvN7HnHDJUSDcAYSDoS2Ns5xglmtodzBjeSdiYt/jK/dxYnBtwH3A7cll+3A7eZ2QO93HC+V2FlYJVB/1yGZnzDH8oLpOf86/yo37DyRE27O8c4ysw+5ZyhMqIBGCVJnwJ+4Z0D+JyZNfq6l6RNgNOJecgHe4bUDNwBPJb//elBr9Y/A1gYWCj/s/U18GeLAyuRCv1Cffo9quJJ0gx/dZ3kpyOSPgv8xDsH8GkzO9I7RBVEAzAKueCcTxmLj7zdzK7yDuFN0hrAucBS3llCIz1Emtu/ETfkDkfSesCV3jmAl4F3Nr0h60Q0AB2StAxpVrIS7s5+AFimQXcYDys/AvRn0jfUEPrlDtKqfv/wDlICSXORnu4o4XHWacA6ZvYv7yAla9INOmOW13o/jTKKP8CJUfxflU/AGwFTnaOE5pgKbBTF/1X5nFTKfB0TgdPyuTu0EQ1AZ/4PWNM7RIvjvQOUJq+tvjnwXWKJ0NA7RtrHNs/7XJhdSeemNUnn7tBGXAIYgaSvA4d452hxq5m92TtEySRtAxwHLOGdJdTKdGBPMzvXO0jJJN0CrOqdo8V+Znaod4gSxQjAMCS9G/i2d45BSuqwi5RP0GuSFpQJoRsuBdaM4t+R0s5R387n8jBIjAC0IWlV0h2tC3tnaTELWMHM7vUOUgV5nfBvAV+juc+nh/Ex4DvAAWY20ztMFUhaDriLsr5gPk16cupW7yAlKekDKoakxUjPl5dU/AF+F8W/c2Y208z2A7bFf5rSUD3TgG3NbL8o/p3L56jfeecYZGHg9HxuD1mMAAySvzWeje8yv0OZAaxqZnd5B6kiSZNJJ6VNvLOESpgCfNDMHvQOUkWSVgBuBSZ4ZxnkPGC7aOiSGAGY0/cpr/gDHBPFf+zyiXwL0kJCLznHCeV6ibSPbBHFf+zyuepo7xxDeBfpHB+IEYDZSNoLOMY7xxBeAlaMSS26Q9IqpMWENvfOEopyEWkxn9u8g9RBnjztTmBe7yxD+LCZHesdwluMAGR5GstSV/H6ZRT/7jGz28xsC2AP4GHvPMHdw8AeZrZFFP/uyeesYs+p+ZzfaDECAEhaijTN72TvLEP4N7CamT3iHaSOJC0CHAzsQ7OWFw5p+d4jgP3N7EnvMHUk6fXAzcDrvLMM4UHSdMEPeQfx0vgRAEnzAadQZvEH+EQU/94xsyfN7LPAekDjF1dqkKuA9czss1H8eyefuz7hnaONycApuQY0UuMbAOAo4O3eIdr43yavL95PZvY3YAPgU8DjznFC7zxO+ow3yJ956LF8Dvtf7xxtvJ1UAxqp0ZcAJO0LHO6do427SDOPPesdpGkkTSTN9/5h4rJAXcwk3eD71ZjDv/8kvQa4HljBO0sbnzezH3uH6LfGNgCS3klaR77EE/wMYEMziyFpR5KWB74K7EWZdzKHkb0EHAt818zu9g7TZPmmu8sob24ASA3iNmZ2vneQfmrkJYB8Yj+JMos/wIFR/P2Z2d1m9glgeeCnwPPOkULnngd+Rpo6+xNR/P3lc9qB3jnamBs4KdeGxmjcCICkhYEr4P+3d+fBllXVHce/ixmZ1DSIoY0IymACCOlJWgZFBiXSnSAGBQpjDDhlIEQFFDUFCqWGBMqogKYUbKIdiAh0RSBgq4BMMpmymRGFMLVMDdJNDyt/7N3k9Xvvvn7v3XPP2uec36fqVFc1zT3r3nP3Xuvus8/elLqj3kXAYd61C9MAZrYVcBzpiYHNg8OR0T1Hmtl/hibPlsfMDPgP4NDoWHr4JTDL3ZdEB1KHThUA+ct3MXBIdCw93AHsqfv+ZTOzlwN/DfwtZT7e1EVPkUZpznL3J6ODkd7yfIDrgF2jY+nhEmBuF36Eda0AOAX4dHQcPSwGprv7r6IDkfExs01JM8qPo9zHSNvuMdJE3q925VdbG5jZtsBNwJTYSHo61d1Pjg5i0DpTAJjZu0lDTyVaAezv7gujA5GJyxtIHUCaLDgH2Dg2otZbRvqVdh7wQ3dfERyPTIKZ7QtcSZmTAiHdir0wOohB6kQBYGa7kWafbhIdSw8fc/d/jQ5C+mdmmwOHkYqBvQCLjahVriUl/fnu/nR0MNI/M/so8JXoOHp4nvQ01u3RgQxK6wsAM5tCWub3tdGx9HCuux8THYRULw9zHkkqBt4QGkxz3QecD5zv7vdHByPVM7NzKHe1wAdJywUvjg5kEFpdAJjZ+qQhpn2iY+nhWtK2o9qetuXMbBapEPhz4JXB4ZTuadJjuue5+7XRwchgmdkGwNXA7OhYevgx6Rbt8uhAqtb2AuCrwIej4+jhN6RJf3pUqUPMbD1gOrAf8DZgT6Cza5Fny4CfkZLA1cCNbexspbe8adBNwGuiY+nha+7+keggqtbaAsDMjqHcNZ5fAN6itcjFzDYiFQGrC4JplDspqiorSbflVif8a91diyx1nJntAVxDuZNoj3X3Urc3npRWFgBm9hZSx7J+dCw9vM/d/z06CClPXqhqb1IxsB/pWemmTyR00hoXqxP+T9z92diQpERm9l7ggug4elhOumV7TXQgVWldAWBmf0AaStoqOpYeTnf3E6ODkGbITxXsAOw47HgD8LLA0EbzO+Ae4K5hx91K+DJeZnY68MnoOHp4nHTr9tfRgVShVQWAmW1Mmli3e3QsPSwADnH3VdGBSLPlVS2nMrIw2B54BbAZ1Y+ALQeWkFbdu4+Rif6hLqyeJoNlZuuQ1nk4ODqWHm4lPR7Y+NtWbSsAvkuaZV2iO0lrTD8THYh0Q55fsBlp34Khfw7/O4BnScl99Z9Lhv+duy+tM37pLjPbgrRny07RsfTwPXc/PDqIfrWmADCzE4EvRMfRw9PATHe/OzoQEZEmMLMdgBuAl0fH0sNJ7n5adBD9aEUBYGZ/AvyAMrc3XgUc7O4/jA5ERKRJzOwg0q3TUvv2Oe5+WXQgk1XihzohZrYTMI9y38sJSv4iIhOX+84TouPoYR1gXs5BjdToEYC8LeuNlLvM6jx3PzI6CBGRJjOz7wBHRMfRwz3AjCbuT9HYAiDvwLYAODA6lh5uBvbSxCkRkf7kCa0/JS2UVaLLSbd6V0YHMhGlDpuPx+mUm/wfBeYq+YuI9C/3pXNJfWuJDiTlpEZp5AiAmR1J2iGsRC8C+7r7z6IDERFpEzN7M7AQ2CA4lF6OcvfvRAcxXo0rAMxsN9LzoRtFx9LDX7r7v0UHISLSRmb2AeCb0XH0sJS03svt0YGMR6NuAeSd1L5Fucn/LCV/EZHByX3sWdFx9LAR8K2cq4rXqAKA9DjIm6KD6OEq4PjoIEREOuB4Up9bojcBjdjvpTG3APKmKA+Rli8tzf2kDSKejA5ERKQLzOyVpI3ftouOZRRLgKmlb4LVpBGAv6DM5P8caTUoJX8RkZrkPncOqQ8uzWaknFW0JhUAx0YHMAonzfr8n+hARES6Jve9R5H64tKUmLPW0IgCwMymADtHxzGKz7n7xdFBiIh0Ve6DPxcdxyh2zrmrWI0oAICZ0QGM4iLglOggRESEU0h9cmlKzF0vaUoBUNpmC3cAR3tTZlCKiLRY7ouPJvXNJdkxOoCxNKUA2DQ6gGGWAo14zlNEpCPWI/XNJdk4OoCxqACYnBnA5Wa2RXQgIiJdl/viy0l9c0lUAFSgxEfsZqIiQEQk1JDkX+L99qeiAxhLUwqAu6MD6EFFgIhIkMKTP8C90QGMpSkFwC+jAxiDigARkZo1IPkD3BUdwFiatBTwfZS55ONqNwAHuvsz0YGIiLRZQ5L//e6+fXQQY2nSTPYLgU9EBzGG1SMBKgIqlBfSmAnsCmwJTAF+b8jxcuB3wDP5eHrIn/cAtwC3ufuS2oOXxjOzzUibu+wBvIH0fdtiyJ9bAC8jfd9+O+RYDDxBeiztBndfXHvwLdWQ5A8pZxWtSSMAOwO/ANaNjmUtNBIwSWa2DjANmEVq3DOBKipo5/+LgVuAH7n7zRW8rrSMmU0D3kpK+KuTvlXw0veR+oYbgOuBm919VQWv2ykNSv4rgV3cfVF0IGNpTAEAYGbnAH8VHcc4qAiYADPbHTgCOBzYpqbTPgDMB+a7+y01nVMKZGZ7AO/Jx+tqOu3DwHeBee5+a03nbLQGJX+Ac939mOgg1qZpBcDWpEkVm0fHMg4qAsZgZq8D3kdK/NH7PNxLKgbOc/eiJ+1INfKI4pGkpP/64HAWAfOAC9z9geBYitSw5P8ssKO7PxodyNo0qgAAMLODgUtoxhMMKgKGMbPtSRt3vI/yruEq0n27U939F9HBSPXMbDfgM8CfUs3QfpVWAReQNhm7LzqYUjQs+a8CDnH3BdGBjEdpHfBa5Q+25MmAQ+kRwczMpprZ2cCdpF9eJX731iH9IrzdzP4z35qQFjCzPczsYuBW4M8oL/lD+v4dCdxpZmeb2dTogKI1LPkDfKIpyR8aOAKwmpmdBpwQHcc4dXYkIM/i/xTwYWDD4HAm41LgZHe/PToQmbj8i/8U4F3RsUzCMuBrwOe7+BRBA5P/6e5+YnQQE9HYAgBUBJTOzN4FfAPYKjqWPq0APk/qiJdHByNrZ2brkQrPTwHrB4fTr8eBD7r7pdGB1EXJvx6NLgBARUCJzGwT4Ayg+FmwE3QraRtozQ8omJn9IfBt4I+jY6nYOcDfu/vz0YEMkpJ/fUq8Dzsh+YM/PTqOcWr9nAAzm05KlG1L/gC7Azeb2UlmVvp6FJ1jZuuY2SeAn9O+5A+pTd2a21grKfnXq/EjAKtpJCCWmRlwIvCPNGuFycm6Dpjr7k9EByJgZq8Evg/sHR1LDVYAnwVO87Z04Cj5R2hNAQAqAqLkIf9vA4dGx1Kze4CD3P3+6EC6zMxeC/wQ2Ck6lppdRLol1fhbAkr+MVpVAICKgLqZ2bbAD0hr9XfRY8DB7v7z6EC6KD+quQB4dXQsQe4A5rj7r6IDmSwl/ziNnwMwnOYE1MfM9gVuorvJH+BVwEIzOyA6kK4xs/2BH9Pd5A+p7d2U22LjKPnHal0BACoC6mBmHwWuJO3O13WbApeZ2bujA+mK/FkvADaLjqUAU4Arc5tsDCX/eK27BTCUbgdUz8w2AL5CMzZlqtsyYD93vzY6kDYzs9nAVTRzYalBOxf4mLu/GB3IWJT8y9DqAgBUBFTJzF5Fmng0OzqWgi0GZmkt98HIe0lcj0aexnItcKi7PxYdyGiU/MvR+gIAVARUIW+ZejHwmuhYGuBu4M3u/mR0IG2SH/X7GbBDdCwN8BvSY6pFbXWt5F+WVs4BGE5zAvpjZu8FrkHJf7x2AL6fb5dIBfJn+X2U/MfrNcA1ue0WQcm/PJ0oAEBFwGTkldVOJ21RunFkLA20N/Dl6CBa5Mt0Y5GfKm0MXGBmp5lZaF+v5F+mTtwCGEq3A8YnN9h5wMF1n7tFHNhLkwL7kyf9/ZQyt/BtigXAEYF9iZJ/gTpXAICKgLUxsx1Ii/t0bWW1QbgL2M3dl0UH0kRmtiFwO7BjdCwtcCdp0aC76zqhkn/ZOnMLYCjdDujNzA4iFR1K/tXYkbRuu0zOZ1Hyr8pOwA25jQ+ckn/5OjkCsJpGAtZkZh8nFUadLAwHaAUw3d1viw6kSczsTaSVJruwuVSdVgEnuPuXBnUCJf9m6HQBACoCAMxsI+AbwBFVvq6s4SZ3nxEdRJOY2Y1Aa7e+LcA84IPuvrTKF1Xyb47O/9Lr+u0AM9uGNMFKyX+wppvZO6KDaIr8WSn5D9YRwE9zH1AJJf9m6XwBAN0tAszszcDNwLS+o5Lx6GxHMwn6rOoxDbg59wV9UfJvHhUAWdeKADP7ALAQ2LqqoGSt9jKzt0QHUbr8Ge0VHUeHbE3a0fIDk30BJf9mUgEwRBeKADNbz8zOBL4JaKW6+p0UHUAD6DOq3wbAN83sTDOb0KRLJf/m6vwkwNG0dWJgXkt9PrDfwKOSseyuJwJGl2f+3xodR8ddBbxnPHtZKPk3m0YARtHGkQAz+yPSI1VtSf7PAA8OO54PjWj8PhQdQMGa8tk8z8jvX1EbePVhP+Cm3Gf0pOTffBoBGENbRgLMbC5wPrBp7VFVZyWpgLk8Hze6+8qh/8DM1gdmAW/PxwzKfIb8UWAbd18VHUhJ8nr1D1PmvJRVpJGJK/Jxnbu/OPQfmNm6pO/cgfmYDqxbc5xVeg44yt0vHv4flPxbwt11jHEAp5HWdG/CcT2wxZDYDfgMqfOKjq2f4xJg20lcuynAmcDyAt7D8GPP6O92aQewZwHXZfixPH+HXjWJ97Nt/u5Gv4d+jlWkPsSGvK8tSH1NdGzjPU6L/m6XeoQH0ISDBhYBwCbAhQXE08/xAHBIBdfvjaRfbdHvZ+jxpejvdWkH8KUCrsvQ4wrgjRW8r0Pydzn6/fRzXEjqU5T8W3ToFsA4Nex2wI3ARsCu0YH04WzgOHd/oaoXNLNDSbdCStja+D53f310ECUxs3uB7aPjAF4gDX1fVNULmtnGwD8Dx1b1mgHuAJaSbnM0gYb910IFwAQ0rAhoquXA37j71wfx4ma2H3ApZRQBu7r7L6KDKIGZ7UJKMNFeAN7l7lcN4sXN7EPAWcD6g3h9eYmS/zjoKYAJ8GY9HdBETwBvH1TyB8gd+xzSL5lobXkiowolfBZLSdvlDiT5A+Tv9ttJ33UZDCX/cVIBMEEqAgbmNmCau/9k0Cdy9yuBwwZ9nnHYJTqAgpTwWRyWvxsDlb/j00jfeamWkv8EqACYBBUBlZsPzHb3X9d1Qne/jDSxKdKYz1l3TPRnMT9/J2qRv+uzSd99qYaS/wRpDkAfNCegbw582t2/EHFyM3sdsAjYMOL8pMVkNvOON0IzM2AJaZZ5hKXATu7+YMTJzewk4FTSY7syOUr+k6ARgD5oJKAvS0j3W0OSP4C7P0B6xjvKJsB2gecvxXbEJX9Ij2SGJH+A3AbmkNqETJyS/ySpAOiTioBJuReY6e6XRgdCWuNh5Vr/1eBED32XIPIzeBH4YuD5AchtYSapbcj4Kfn3QQVABVQETMgVwAx3XxQdCIC7Pw3cEhjCzoHnLkXkZ3CTuz8XeP6X5DYxg9RGZO2U/PukAqAiKgLG5Qzgne7+VHQgwywMPPfUwHOXIvIzGPhTJxOR28Y7SW1FelPyr4AKgAqpCOhpGXC0ux/vwzbwKcTCwHP/fuC5SxH5GRRVAAC4+0p3Px44mtR2ZE1K/hVRAVAxFQEj/C+wt7ufFx3IGK4JPLcKgNjP4LrAc48pt5m9SW1IEiX/CqkAGAAVAS+5gbS4z43RgYzF3Z8Fom5LbBN03pJEfQZP5WtfrNx2ppHaUtcp+VdMBcCAqAjg28A+7v5IdCDjFPUra2sz62w7zO9966DTN+KXdW5D+5DaVFcp+Q9AZzueOnS0CFhJ2sXv/e7epPuXUclgPWDLoHOXYEvSZxChEQUAgLsvc/f3A8cR+9hqBCX/AVEBMGAdKwKeAg5y93+JDmQSIpNBl+cBRL73xhQAq+W2dRBxt6zqpuQ/QCoAatCRIuCXwHR3/+/oQCZJBUAMFQATlNvYdFKbazMl/wFTAVCTlhcBlwCz3P2+6ED68HDguVUAxIi85n3JbW0Wqe21kZJ/DVQA1KilRcCpwFx3b/o65hoBiKERgEnKbW4uqQ22iZJ/TVQA1KxFRcDzpP3TT27JbnaRyaDLjwJGvvdGFwAAnpwMHEZqk02n5F8jFQABWlAEPAjMdvcLowOpkEYAYmgEoAK5Lc4mtc2mUvKvmQqAIA0uAn5MWtzn9uhAKvYoEDWSoQKgfk665q2R2+Q0UhttGiX/ACoAAjWwCPgasL+7L44OpGruvhx4Iuj0KgDq90S+5q2S2+b+pLbaFEr+QVQABGtIEbAcONbdP9LGTnOIqFnhW5pZ1GI4YfJ7jloEqbFPAKyNuy93948Ax5LabsmU/AOpAChA4UXA48Db3P2c6EBqEHVPOHI53EhbE9cHteb+fy+5zb6N1IZLpOQfTAVAIQotAm4lLe4TuVtenTQRsF6aADhgue1OJ7Xlkij5F0AFQEEKKwK+R5rp/+voQGqkRwHrpUcAa5Db8GxSmy6Bkn8hVAAUpoAiYBVwkrsf7u4vBMYRQSMA9dIIQE3c/QV3Pxw4idTGoyj5F0QFQIECi4BngTnuflrAuUugAqBeKgBqltv2HFJbr5uSf2FUABQqoAi4B5jp7pfVeM7SaD+AemkfgAC5jc8ktfm6KPkXSAVAwWosAi4HZrj7nTWcq2QaAaiXRgCC5LY+g9T2B03Jv1AqAApXQxHwZeBgd396gOdoiieAFUHnVgFQnxXELfpUjNzmDyb1AYOi5F8wFQANkBvQP1Dt5J2lwFHu/nF3X1nh6zaWu68ibnlYPQVQn0fzte48d1/p7h8HjiL1CVVZCRyv5F82FQAN4e7/BBxCNZN3bgNmuft3KnittokaGn6FmW0UdO7a5ff6iqDTd3r4fzS5L5hF6hv69RRpVPGMCl5LBkgFQIO4+wJgR+BcUoU9UUuAk0mL+7RtM5+qaB5APXT/vzC5T5gOfIbUV0zUSuDrwE7uXsfcAumTCoCGcfdH3f0YYBfgi8D94/jfFgF/B0x191PdPeo+dxOoAKiHCoACufsKdz8FmErqMxaN43+7n9QX7eLuH3b3UpcelmE6twFJW7j7IuCTwCfNbCfSyMDrScOqL+TjLuCGNu7eN0B6FLAeegSwYO7+LHAmcKaZTSE9NrgjsHE+ngLuBe7S00PNpQKgBXIDVCOshkYA6qERgIbIPyAW5ENaRLcARNakAqAeKgBEgqkAEFmTNgSqhzYCEgmmAkBkTRoBqIdGAESCqQAQGcLdn6TaBVEmQgXA4C3N11ik81QAiIwU9QtRBcDg6de/SKYCQGSkqCSxqZltFnTu2uT3uGnQ6VUAiGQqAERG0jyAwdL9f5ECqAAQGUkFwGCpABApgBYCEhkpMkmcYmYPBZ6/DlMDz60CQCRTASAyUmSSmB147i5QASCS6RaAyEhaK769VACIZCoAREZSkmgvFXcimQoAkZFUALSXrq1IpgJAZBh3fw5YEh2HVG5JvrYiggoAkV70S7F9dE1FhlABIDI6JYv20TUVGUIFgMjolCzaR9dUZAgVACKj02zx9tE1FRlCBYDI6PRrsX10TUWGUAEgMjoli/bRNRUZQgWAyOiULNpH11RkCBUAIqNTsmgfXVORIczdo2MQKY6ZbQgsjY5DKrWRuy+LDkKkFBoBEBlFThS/jY5DKvNbJX+RNakAEOlNQ8btoWspMowKAJHeHogOQCqjaykyjAoAkd5uiQ5AKqNrKTKMCgCR3n4eHYBURtdSZBg9BSDSg5ltDjwCvCw6FunL74BXu/uz0YGIlEQjACI95IQxPzoO6dt8JX+RkVQAiIzt7OgApG+6hiKjUAEgMgZ3vx44PzoOmbTz8zUUkWE0B0BkLcxsCrAImBIdi0zIYmBnd18cHYhIiTQCILIWOYEchpYGbpKlwGFK/iK9qQAQGQd3X0gqAlYEhyJrt4KU/BdGByJSMhUAIuPk7pcBBwKPR8ciPT0GHJCvlYiMQQWAyAS4+9XAHsDV0bHICFcAu7v7j6IDEWkCFQAiE+TuD7v7fsBbUSFQgquAfdz9QHd/JDoYkabQUwAifTKzqcA7gAOA7YBXA1sB60bG1UIrSbdfHgHuJ/3i/y93fyg0KpGGUgEgIiLSQf8HcZmQlsJLRH0AAAAASUVORK5CYII=;" vertex="1" parent="1">
                    <mxGeometry x="555" y="95" width="50" height="50" as="geometry"/>
                </mxCell>
                <mxCell id="13" value="" style="shape=image;verticalLabelPosition=bottom;labelBackgroundColor=default;verticalAlign=top;aspect=fixed;imageAspect=0;image=data:image/png,iVBORw0KGgoAAAANSUhEUgAAAgAAAAIACAYAAAD0eNT6AAAABHNCSVQICAgIfAhkiAAAAAlwSFlzAAALGAAACxgBiam1EAAAABl0RVh0U29mdHdhcmUAd3d3Lmlua3NjYXBlLm9yZ5vuPBoAACAASURBVHic7N13nCRVuf/xzxeWKEiQxWXxIkgWQUBAkAwiUQRERRBMP0W5XkWvGQmKYEDFcEVQr5cgiKjkJBKXBYmSJCeVzK7kzO4+vz/OGeidnZ7pmenu51TV8369+oWsy9R3uqvqefpU1TkyM0IIoydpE+AAYEvvLA13AfAtM5viHSSEKlE0ACGMjqSlgKOBdzlHCbM7D/iImT3kHSSEKogGIIRRkLQ58Dvg9d5ZwpAeAT5oZhd5BwmhdNEAhNAhSTsApwATvLOEYc0AdjazM72DhFCyaABC6ICkzYBzgPmdo4TOvABsa2YXewcJoVTRAIQwAklLALcCS3hnCaMyHVjVzKZ7BwmhRHN5BwihAn5EFP8qWoL02YUQhhAjACEMQ9L6wF+9c4Rx2cDMrvAOEUJpYgQghOHt7R0gjFt8hiEMIUYAQmhD0muBh4AFvbOEcXkOWMrMnvIOEkJJYgQghPY2IYp/HSxI+ixDCC2iAQihvbd5BwhdE59lCINEAxBCe2t7BwhdE59lCINEAxBCe8t5BwhdE59lCINEAxBCe5O9A4Suic8yhEHiKYAQhiBpPtJ0sqE+5jezF71DhFCKGAEIYWjxjbF+4jMNoUU0ACEMLYpF/cRnGkKLaABCGFoUi/qJzzSEFtEAhDC0KBb1E59pCC2iAQhhaFEs6ic+0xBaRAMQwtCW9g4Qui4+0xBaRAMQwtDi22L9xGcaQotoAEIYWhSL+onPNIQW0QCEMLQoFvUTn2kILaIBCGEQSQsBC3vnCF23cP5sQwhEAxDCUOKbYn3FZxtCFg1ACHOKIlFf8SRACFk0ACHMKYpEfUVzF0I2wTtACAXyLBKXAfc7br8f3gBs6LTtaABCyKIBCGFOnkVifzO7yHH7PSdpc+BCp81HAxBCFpcAQpiTZ5F40HHb/eL5O0YDEEIWDUAIc4oGoLeiAQihANEAhDAnryLxjJk97bTtvsm/4zNOm48GIIQsGoAQ5uRVJJrw7X+A1+8aDUAIWTQAIbSQtDgwv9PmowHovfnzZxxC40UDEMLs4vp/f8R9ACE4iwYghNl5FocHHLfdb56/azQAIRANQAiDxQhAf8QIQAjOYiKgGpC0CrAysAKwGPB8ft0OXGlm0x3jVU00AP0RDUBFSFoCeDvpHLNAfj0O3AXcbma3OcYL4xANQEVJWhX4CLAr8KYR/u6twFHA/5nZU71PV2me6wBEA9AfsdbDCCS9FvgosDew6gh/9x7gj8DRZnZrH+KFLolLABUjaZKkXwI3AV9mhOKfrQr8GLhf0jckRePXXowA9EeMABRI0gRJ+5PWo/gxIxT/7E2kc9FNkn4paVIvM4bukZl5ZwgdkrQ9cALw2nH+qOuBj5jZDeNPVS+SrgTWc9r8Amb2gtO2+0rS/KTLVB6uMrO3O227WJLeChwNrDnOH/UUsLuZnTXuUKGnYgSgIiT9N3A64y/+kA7wKyR9qAs/q268vh0+3pTiD5B/18edNh8jAIPkc8EVjL/4QzpHnZ7PWaFg0QBUgKTvAD+gu5/X/MBxkg6TNHcXf25lSZoL8Bq+bNIjgAO8fudJ+bNuPElzSzoMOI7uToA1F/CDfO4KhYqDoHD5APpqDzfxReAsSYv2cBtVMRG/G2ObdP1/gNfvPIH0WTdaPubPIp0DeuWr0QSUKxqAgvWh+A/YGrgqP07YZHEDYH/FjYBO8rF+FenY77VoAgoVDUCh+lj8B6wIXClphz5uszTxCGB/xaOADvIxfiXpmO+XaAIKFA1AgRyK/4DXAqdJ+prDtksQIwD9FSMAfZaP7dPozs3EoxVNQGGiASiMY/EfMBdwqKQTJS3gmMNDNAD9FQ1An0haQNKJwKH4nvejCShINAAFKaD4t/oAcJmkZbyD9FEsBNRfsSBQH+Rj+DLSMV2CaAIKEQ1AIQor/gPWAq6WtJF3kD6JEYD+ihGAHsvH7tWkY7kk0QQUIBqAAhRa/AcsCVwo6ZPeQfrAqyjMAh522ranh0m/u4faNwD5mL2QdAyXKJoAZ9EAOCu8+A+YBzhK0hGS5vEO00Ned4ZPM7MZTtt2k3/naU6br+1TAJLmkXQEaQGw0o/XaAIcRQPgqCLFv9Wngb/k5UFrJTc2XpPDNHH4f4DX7z6xjs1sPjb/QjpWqyKaACfRADipYPEfsClwTV44pE4mAXLadjQA/Sf8pn3uiXxMXkM6RqsmmgAH0QA4qHDxH/BG0hMCu3oH6aK4AdBH3AjYBflYvIx0bFZVNAF9Fg1An9Wg+A94DfAHSQdL8vrm3E3xCKCPeBRwHJQcDPyBdExWXTQBfRQNQB/VqPi3+gZwqqSFvYOMU4wA+IgRgDHKx9yppGOwTqIJ6JNoAPqkpsV/wI7AFZKW9w4yDrEOgI9YD2AM8rF2BenYq6NoAvogGoA+qHnxH/Bm0qRB7/QOMkYxAuAjRgBGKR9jV5OOuTqLJqDHogHosYYU/wGLAedK2tc7yBhEA+AjGoBRyMfWuaRjrQmiCeihaAB6qGHFf8DcwOGSjpY0n3eYUfAqBp6T4ZRgGuk98FCZBkDSfJKOBg4nHWNNEk1Aj0QD0CMNLf6tPgxcImkp7yAd8ioGD5uZ13S47vLv7jUNciUagHwMXUI6ppoqmoAeiAagB6L4v+LtpEmD1vMOMhxJr8VvSLXJjwAO8HoPFsuffbHysXMN6VhqumgCuiwagC6L4j+HycAUSXt5BxmG52qHTb7+P8DzPSh2pct8zEyhIiMVfRJNQBdFA9BFUfzbmg84RtIPJZV4/XIzx21HA+D7HmzmuO0hSZpb0g+BY0jHTphdNAFdEg1Al0Tx78gXgLMllXYH82aO277fcdul8HwPNnPc9hzysXE26VgJ7UUT0AXRAHRBFP9ReRdwlaRVvYMASFoUWNsxwq2O2y6F53uwdt4H3OVj4irSMRJGFk3AOEUDME5R/MdkBeBKSe/2DgJ8Dd/Hqv7uuO1SeL4Hc5P2AVf5WLiSdGyEzkUTMA4yM+8MlRXFf9wM+IaZHeqxcUnLkb59el1nfQ5YyBp+EObFpJ7GbzGbF4FVzexej41L+jrwbfyWo66D75qZeyNXNTECMEZR/LtCwCGSfi9pQYftfx/fm6xubnrxB8jvwc2OEeYj7Qt9JWlBSb8HDiGK/3jFSMAYRAMwBlH8u+79wGWSlunXBiXtAOzar+21EcP/r/J+L3bN+0Rf5H39MtK+H7ojmoBRigZglKL498yapEmDNun1hiRtA/yx19vpwE3eAQpSwnvxB0lb9XojeR+/hrTPh+6KJmAUogEYhSj+PTcROF/Sp3q1gVz8T6WM56sv9A5QkAu8AwDzA6dJ2rJXG8j79vmkfT30RjQBHYoGoEMVK/5XATd6hxijeYBfSDpS0gLd/MGSPkg5xf9eM7vBO0QpzOwm4G7vHMACwBmS3tvNHyppAUlHAr8g7eNVdCPp3FIF0QR0IBqADlSs+F9Jeo74HcCfnLOMx97ALZJ2HO8PkrSGpIuAEyij+AOc4h2gQKW8JwsAf5R0nqQ3j/eH5X34FtI+XVV/Ip1T3kU6x1RBNAEjMbN4DfMCvkN6XK0KryuARVqyCzgAmFVAtvG8TgeWHcNnNxE4grTcrPfvMPi1ofe+XdqLVGC8P5fBr5eBnwCvH8Pvs2zed71/h/G8ZpHOIWr5vRYhnWu8s3X6+o73vl3qK+YBGEYFv/lvbWZPDv4/JO0EHAcs1PdU3TMTuBr4c35dZWYzW/+CpHmA9YF35td6wIQ+5+zEI8Bka/AywEORNBdpZcBJ3lmGMAu4Djgvvy43s5da/0Je52I9YOv8WhffSabG6xlgTzM7dfD/IWkR0nFYlVUKY56AIUQD0EZdiv8ASW8BTgPe1LdUvfUk8MSgP1sCv8lkRuMoM+vZjY5Vlq+TV2Go/Flg+qA/W5T07bgO7gHeY2ZtH8+MJqD6ogEYQt2K/wBJiwMnAT27yzl0ZC0zu947RIkkrUn6ph38XAC838weG+kvRhNQbXET4CB1Lf4A+YDeBvhpT1OF4ZwTxb+9/N6c452jwX4KbNNJ8QfI556tiRsDKylGAFrUufgPJuljpEeS5u1qqjCSjc1sqneIkknaCLjUO0fDvAR82sx+M5b/OEYCqikagKxJxX+ApA2Akynzpqs6utTMej7TYR1ImgJs7J2jIR4GdjGzv47nh0QTUD1xCYBmFn+AfMCvQ5qWNPReDD12Lt6r/rgGWGe8xR/ickAVNb4BaGrxH2BmD5C+aR3frZ8ZhnS1mcW17Q7l9+pq7xw1dzzpktQD3fqB0QRUS6MbgKYX/wFm9oKZfQj4Mul559BdM4BPeoeooE+S3rvQXbOAL5vZh8zshW7/8GgCqqOxDUAU/zmZ2WHA9sz5fH0Yn8Pizv/Ry+/ZYd45auYJYPt8rPdMNAHV0MibAKP4D0/SSqRJg1bp1zZr7HbgrWb2oneQKpI0H3ADsLJ3lhq4jTS5zx392mDcGFi2xo0ARPEfWT5BrA+c1c/t1pABH4/iP3b5vfs46b0MY3cWsH4/iz/ESEDpGtUARPHvXN7ujsD3PLZfE/9jZpd5h6i6/B7+j3eOCvsusKPzuSSagAI15hJAFP+xk/RB4H9Jy6SGzkwBthq8YEwYG0nzAn8BYh6Fzj1PGoH6nXcQiMsBJWpEAxDFf/wkrQ2cCvyHd5YKuAPYoNPpVENn8loWfwVW8s5SAfcBO5nZ37yDtIomoCy1vwQQxb878olkXSCGtIc3Hdguin/35fd0O+ZchS/M7jJg3dKKP8TlgNLUugGI4t9dZvYIsAXwK+8shXqR9K3rbu8gdZXf251I73WY06+ALfKxWqRoAspR2wYgin9vmNlLZvZJ4DPEJC2tXgY+FDf99V5+jz9Ees9DMgP4jJl9sgr3nUQTUIZa3gMQxb8/JG0G/AFYwjmKt6eB95rZX7yDNImkdwF/AhbyzuJsOvA+M7vYO8hoxT0BvmrXAETx7y9Jy5ImDVrDN4mbh0gzq13nHaSJJL2N9Iz7672zOLmRNLnPP7yDjFU0AX5qdQkgin//5RPPO0jfxJrmNtLd/lH8nZjZtaT9707vLA7+BLyjysUf4nKAp9o0AFH8/ZjZs8D7gP1ozn0BU4ANzeyf3kGazszuATYELvfO0iczSMfa+/KxV3nRBPioRQMQxd+fJYdS/29jLwJfATaPR/3KYWbTSJME7QcUfxPcONxJ+tZ/qNXs+m00Af1X+XsAoviXR9JrgB9RvyVwrwU+bGY3ewcJ7UlaHTgGWMs7S5f9EvhCXb71txP3BPRPpUcAoviXycyeNbO9SWsJPOqdpwteBg4iLaYSxb9wZnYTqXh8k3pcknqUNJf/3nUv/hAjAf1U2QYgin/5zOwMYDXgx1R34pYzSLOqfdPM6lBMGsHMXjazg4B1gDOd44zVi6RjZ7V8LDVGNAH9UclLAJL+G/iBd44ONbL4DybpDcD+wMeACc5xRmLA6cC3SpxONYxeflzwQODd3lk6MAP4DXCwmd3vHcZTBS8HfNHMfugdolOVawAkbU86OVdh9CKK/yCSlicNp+9OeZ+hAaeQCv8N3mFC9+VFrQ4A3uOdZQizgBOAg2I66VdVrAmYRbpcc5Z3kE5UqgGQNAm4HXitd5YORPEfhqTlSE3AHsCqznHuAk4CfmtmtzpnCX0gaTXS/vd+YAXnOLcCxwMnmNm9zlmKVLEm4ClgZTN72DvISKrWAPwS+IR3jg5E8R8FSWuRGoHdgKX7tNl7SUX/pBjmb7Y8KvD+/FquT5t9ADgROD4mkupMxZqAX+U1U4pWmQZA0qrATcDc3llGEMV/jCTNRbppa33SQf52YPku/GgjPT/9t/y6yMyu6cLPDTUjaR1gc2Dt/FoRUBd+9N2kc8OVwBXANWY2qws/t1Eq1ATMBFYvfUSxSg3A94Ave+cYQRT/LpO0BOlgXwOYSFp46HUtr0WB54An8+uJln8OFP3rzezpvocPlSdpYWBNXm0GFgUWafnnIsCCpP3t3y2v6cA00lz9V5rZ9L6Hr6kKNQHfN7OveIcYTpUagLuBN3nnGEYU/xBC6IOKNAH3mFk3RjB7prS7sIeUh/+j+IcQQqjKPAFvyrWrWJVoAIA3ewcYRhT/EELos4o0ASXXrso0ACt5B2gjin8IITipQBNQau0CqtMALO4dYAhR/EMIwVnhTUCJtesVVWkAnvEOMMhVRPEPIYQitDQBV3lnGaS02jWbaADGZn7qscpYCCHUxQzSubkkpdWu2VSlAbjNO8AgawDHSOrGBCEhhBDGIZ+LjyGdm0tSWu2aTVUagBKv7byXtLpdCCEEX/uTzsmlKbF2vaJKEwHdgv+iMYMZsIuZneodJIQQmkjSTsDJdGfK5m661cziMcAuOco7wBAEHCfpLd5BQgihafK59zjKK/5QZs2aTZVGAF4L3A8s7J1lCPcA65rZY95BQgihCSQtDlxNmbPEPg28wcye8g4ynMqMAOQ38vveOdp4E3CSpAneQUIIoe4kzU1azrvE4g9wWOnFHyo0AgCQC+zVpNW5SvRTM/ucd4gQQqgzST8GSj3XXk8aES7+UfFKNQAAkt5KWk+7tOc9B3zczH7jHSKEEOpI0keBUs+xLwDrm9kN3kE6UZlLAAPyG/sJ7xzD+IWkDbxDhBBC3UhaH/iFd45hfKIqxR8q2AAAmNlvgR9452hjXuBkSUt7BwkhhLrI59RTgPm8s7Txw1ybKqNylwAG5JtAziLN/1yia4CNzewF7yAhhFBlkuYHpgDremdp48/A9mY20zvIaFRyBAAgv9G7AXd6Z2ljHeDX3iFCCKEGfkm5xf9OYLeqFX+ocAMAYGZPADsCpT5usYekL3mHCCGEqpL038Ce3jnaeAp4T65FlVPZSwCtJO0AnEaZDc0s0tDQud5BQgihSiRtTbrUO7d3liHMIhX/M72DjFWJBXPU8gfwDe8cbcwF/E7SSt5BQgihKiStCJxImcUf4BtVLv5QkxGAAZJOBD7gnaON20jPhz7pHSQ0g6R5SVNnL5T/2fpq/TNIU5c+k//Z+nrlz8zspX7mD82Vp36/gvIWgBvwezPbzTvEeNWtAVgAuAxYyztLG2cBO5rZLO8gofokTQZWAVZu+ecKwKKkwj5vlzf5EqkZeAK4C7id1NjeDtxmZg92eXuhgSTNRbqku4N3ljauAzYys+e8g4xXrRoAAEnLkKYLXtI7SxvfNbOveYcI1ZAff1qROQv9ypS3MNbTpGZgtsYAuDMehw2dknQoUOo58lHSNL//8g7SDbVrAAAkbQRcCMzjnaWN3c3sd94hQnkkLQhsCGwBbE56nLTUa6CdmkmaF+Oi/Jpah29PofskfYB03b9ELwNbmtml3kG6pZYNAICkT1LueszPk4aQ/uYdJPiSNB+wPq8W/LfT/aH70rwMXElqBi4E/mpmL/pGCt4krQVMBRb0ztLGp8ys1JoyJrVtAAAkHQF82jtHG/eRhpIe8Q4S+ievaLkuqdhvAbwDWMA1lL8XgMt5dYTgKjN72TdS6CdJS5Iu3S7jnaWNX5jZPt4huq3uDcA8wF+ATb2ztHEZsEXcXV1/eRGTvUhPqSzuHKd0T5DWej/WzC7zDhN6K5+nLwA29s7SxhTgnXVsSmvdAABIWoJ0/fGN3lna+JWZfdI7ROg+ScsCHyIV/hVdw1TX3cBxwHFmdo93mNB9ko4E9vbO0cY/SSO107yD9ELtGwAASW8lfdt+jXeWNj5jZj/3DhHGLz+//D5S0d8YkG+iWrkMOBY4qapTr4bZSfo0cIR3jjaeAzY0s+u9g/RKIxoAAEm7An/wztHGDGArM7vYO0gYvbwy5btIRf89xDX9XnsROJ3UDJxrZjOc84QxkLQJcD7lPq31fjMrtWZ0RWMaAABJB1PulMHTSUNN//AOEjoj6TXAp4AvAJOd4zTVI8DhwBFm9rR3mNAZSW8k3fQ30TtLG4eYWam1omua1gAIOJW0gmCJbgTeYWbPegcJ7UlaBPgM8Hngdc5xQvIY8BPgp3F5oGx5rovLgbd6Z2njDNIiP7Uvjo1qAAAkLUyaY/rN3lna+BPwvibsfFUj6XWkov8ZYBHnOGFoTwE/B35kZtO9w4Q5STqJdJ9MiW4hrdnSiNGkxjUAAJKWJw0/LeadpY39zOxQ7xAhkTQJ+CJpuL/UG0nD7J4DjgR+YGYPeYcJiaT9gG9752jjcWA9M7vLO0i/NLIBAJD0TuBcypxmdQbpUsDV3kGaLK8r8WXg48D8znHC2LwA/Ab4Xl3mb68qSTuSLsGW+GTMTGA7MzvPO0g/NbYBAJC0L+kGohLdCawV9wP0n6TFSN9SPkG5dyiH0XkZ+BVpDffHvcM0jaQ3ky69lraA1YD/NrMfeYfot0Y3AACSjgY+7J2jjV+aWakTZNROvkn0I8D3KPfu5DA+04CvAEfHfTb9kRvqq0hLVZfoWDMrtQb0VDQAaTGWS0iLsJRoRzM7wztE3UlagzQhyYbeWUJfXAbsY2Y3egepszxHxjnAVt5Z2rgK2KSpi1HN5R3AW/7gdwYe9M7Sxq/zdMahByQtLOlw4Fqi+DfJhsC1kg7PTwaF3jiMcov/Q8DOTS3+EA0AAPku4Z1JM4yVZklgP+8QdSRpN+A2YF9ggnOc0H8TSJ/9bXlfCF0k6cOkx2ZL9CKp+Jf6xa8vGn8JoJWkvYBjvHMM4UVgBTO73ztIHUhamfSs+JbeWUJRLgD+08xu9w5SdZLeTrq0Op93ljY+amZHe4fwFiMALczsWKDEO0HnA/b3DlF1kuaWdBBpxsUo/mGwLYEbJR2Ur12HMZC0FHAy5Rb/H0fxT2IEYJB84J9NWtylJDOAVczsbu8gVSRpMvA7YBPvLKESpgAfbPoQ8WhV4Kbq84FtzGymd5ASxAjAIHnH2A0obTaoCcBB3iGqSNLWwPVE8Q+d2wS4Pu87oXNHUW7xvxv4QBT/V0UDMIQ8UciOQGnzQe8uaTnvEFWRh/wPIT2GFM/1h9GaCJwj6ZC4JDAySZ+n3DlVniYt8POYd5CSRAPQhpndCuwBlHSNZC5gd+8QVSBpaeAi4OuUOfVoqAaR9qGL8j4VhiBpK9IjfyUyYE8zu9k7SGmiARhGnoCntDWh9/AOUDpJ25CG/Df2zhJqY2PSJYFtvIOURtIKwO8pc10VgAPN7DTvECWKmwA7IOn3wPu9c7RY28yu8w5RGkkTgINJU73Gt/7QC0aaKnp/M5vhHcZbBZZX/yPw/pj2eWgxAtCZj5K+UZYiRgEGkTSRNOT/VaL4h94RaR+7KO9zjZXXzvgt5Rb/G4CPRPFvL0YAOpSXhr2GMm4mewBYxsxmeQcpgaRlgT8DK/kmCQ1zB7C1mf3DO4gHSR8D/tc7RxvTgXWb+tl0KkYAOpTXEt+VtKyot6WBdbxDlCAv4nM5UfxD/60EXJ73wUaRtCjwXe8cbcwA3hfFf2Qx//komNkUSZ8FfuGdBViftJJVY0naBDgdWMQ7S2GeAW4nfUN9LP/704NerX8GaZ32hfI/W18Df7Y4qeCtnP8sJEsBUyTtaGZTvMP00cGUMRo6lM+Z2cXeIaogLgGMgaQjgb2dY5xgZo29F0DSzsAJwPzeWZwYcB+p0N+WX7cDt5nZA73ccH4cbmVglUH/XIbm3n/xArC7mZ3iHaTXJK0OXEeZd/3/ysw+6R2iKqIBGANJCwC3AMs6xrjbzFZw3L4bSZ8EjqDME1CvzCLd1HQh6WbHS83sKd9Is8t3hG8EbAFsDqxFsy4zzgT2MbNfegfpJUnfId0IWZqpwJZm9pJ3kKqIBmCMJO0IeD9bOtHMpjtn6CtJBwDf9M7RBwbcTCr2FwKX5BkqKyNfJ96U1BBsAaxGM0YIDjSzb3mH6BVJU4ENvXMMch+wjpk96h2kSqIBGAdJpwPvdoywg5md5bj9vpE0F/AzYB/vLD00i7Qk7XHAuWY2zTlPV+XH5rYB9iStvFfn0YEjgP+q25M6kuYHngTm9c7S4nlgIzP7m3eQqokGYBzy42d34TcU/XUz+47TtvsmF//jSYs01dHfSUX/+F5fvy9Fvo9gD1Iz8BbnOL1yIrBHnZqAfOPtJd45BvmgmZ3oHaKK6tyB91x+zORqxwil3oXbbT+jfsX/UeDHpFkdVzez7zel+AOY2QP5d14dWJv0XtRt+HY30r5bJ6Xdd/TdKP5jFw3A+P3ZcdtLOG67L/I1/zoN+19Cumy0tJl9PqZ0BjO7zsw+T5rf4t2U9w1zPPbJ+3BdPOsdoMXZwH7eIaosGoDx82wAXue47Z7Ld/vX5Ya/c4GNzWwzMzsz5pGfk5nNyO/NZqTFd851jtQt38z7ch084x0gu4302GVtLq94iAZg/K4i3RTjobYNQH7O/wjvHONkwCmku5O3NbOp3oGqwsymmtm2pBkvT6GsZbnH4oi8T1fd0yP/lb74mJl5nXdrIxqAcTKzmcATTpuvZQOQbzQ6geo+5z+TlH91M9vFzK71DlRVZnatme0CrE56T2c6RxqruYET8r5dZaU8irqVd4A6iKcAukDSP4A3Omx6upnV6kbAPK/6FKo7ve/ZwL5mdqd3kDqStCLphsHtvLOM0ZPAJmZ2o3eQscgrAN4NLOcc5VHSgmgvOueotBgBqLbnvAN0U36s8lyqWfzvA3Yxs+2j+PeOmd1pZtsDu5De86pZBDg37+uVk5fWPdY7B7Ak8CHvEFUXDUC11eYaWJ4k5s+kxVWqZAbwA2DVJswDX4r8Xq9Keu+rdkPlUsCf8z5fRcdSxj0Zn/cOUHXRAIyTpHnwexyvFg2ApAnAyVRvSd+pwFpm9iUzK+nxqEYws2fN7EukNQeqdoPlSsDJed+vFDO7B7jUOwewmqRtvENUWTQA47cB8BqnbXvdfNhtB5MWkamK6cBHSddy/+4dpunyZ7AJ6TOp0toYG5H2/Sr6qXeA7AveAaosGoDxsJ+F9AAAIABJREFU87wbtfIjALmD/4p3jlG4BFjDzI62uIO2GJYcDaxBtSYS+kpFv8WeDNzqHQLYKi9PHMYgGoDxe6fjtis9ApDngz+OaqwQN4v0bW1LM3vIO0wYWv5stiR9VlWYJEbAcflYqIzc/H7XO0cWowBjFA3AOEiaBKzrGKGyd5tLmhv4HdWYzvgRYGszOyDP+xAKZmYzzewAYGvSZ1e6JYDf5WOiSk4A/uEdAthd0uu9Q1RRNADjcxC+k9VUefnLb5Gmey3dRcCaZna+d5AwOvkzW5P0GZZuY9IxURl5OuvDvHOQlibeyztEFcVEQGOUrztdh18DYMAiZlbK1Jwdk7Q1cA5lD/0PDPl/K+Ybr7a8nPQBwP6U/aXHgG3NzHN9kVGRND9wLzDJOcqtZvZm5wyVU/LBULof4/vt/86KFv/JlH/d/zng3WZ2UBT/6jOzWWZ2EGmlwZInzxq4H2Cyd5BOmdkLwI+8cwCrSlrfO0TVRAMwBpJ2BbZwjlG54f+W6/4lT4DyGOlGv7O9g4Tuyp/plqTPuFQTqd79AL+gjDUCPuYdoGqiARglSVtSxlSYlWsASEOwJS+Gch+wkZld4R0k9Eb+bDei7GmENyEdK5VgZs9QxrwAH5C0oHeIKol7AEZB0lbAacAC3lmAdc3sGu8QnZK0MnAj6YadEt1CutP/fu8gofckvYE09XSp141fAt5qZrd5B+mEpMWBfwILOUfZy8yOc85QGTEC0CFJOwCnU0bxv7dKxT/7OeUW/78CG0fxb478WW9M+uxLNC9whHeITpnZY8BR3jmIywCjEg3ACCQtJ+kPwBnA/N55spO8A4yGpN1I115LdBbwznwCCw2SP/N3kvaBEm0uaXfvEKPwQ8B7ed5NJXkvVVwZ0QC0IWlRSd8jTXe5q3eeQSrTAEhamHRiKNFZwE5mVvKd4aGH8me/E+U2AT+UVInlsfMsjP/nHEPEKEDH4h6ATNJrSTcHbZZfa+P7mF87d5nZit4hOiXpcGBf7xxD+Cvpm38U/0C+eex80uJepfmZmX3WO0Qn8rfvOwDvVQ6fBh4c4vVAy/9+KD/G2Fi1bwDycr2TgMktr6UH/ftkYDGvjKN0qJnt5x2iE5LWAK7F/2Qw2C2ka/4x7B9ekW9ku5TybgycCaxnZpV48kfSccCHvHN06DHaNwgDr4fzrIe1U9kGIM/uNZH2BX3gzydS9qQzozELeLOZ3e4dZCSSRDqZbuidZZD7gHfEDX9hKPnpgMuB//DOMshVwAZVmJgqN/43eOfoolnANIZuDlpfj1ZthdAiG4DciQ9VzFv/fRLlfbPstZPM7APeIToh6aPAb7xzDPIY6Tn/EpYxDYWStCowFVjcO8sgnzKzEu60H5GkG4GmLdM7A3iIES49mFkJkyYBfW4AJC3E8N/YB16l3G1fEiM9F3yTd5CRSFoMuJ2yZvx7jjTDX0zyE0aUp5W9AChpYpnHgZXNbJp3kJFI+irwHe8chXqB4e9NGGgUnul1kK40AJLmo/0QfOu/LzzujTXXKWa2i3eITkj6ObCPd44Ws0hz+8f0vqFjkrYjPf5b0tNSvzGzj3uHGImkN5IWCarL5VcPAzcyDnvpwczG/OjlqBqAfKf8JsDbSHfJL0cq7K8ba4DQsbXN7DrvECORtAxwFzCPd5YW38yLwYQwKpIOAg70ztFiJmkU4G7vICORNJXy7gGqo3+TmoF7SVPEXwtMMbOnRvoPO2oA8nDY3sD7KWtIrCnOMLMdvUN0QtL/AP/pnaPFRaTH/Yq/eSqUJ99sfD6wuXeWFr82s094hxiJpH1IM4CG/nuONF/MUcNd9hy2AZC0BGmpxz27Hi90agawjpkVf1etpEmkLrSUezgeAdY0s4e9g4Tqyvv19cDrvbNkLwHLl/4kS64fD9G8m7VLcxzwBTObPvj/aHttS9LmpFnwovj7OqQKxT/7IuUU/1nAh6L4h/HK+9CHSPtUCeYFvuQdYiS54JznnSOwJ3CrpM0G/x9DNgCSdgLOAZboba4wguuAQ7xDdELS64BPeedocYiZne8dItRD3pdKOhY/IWlJ7xAdOME7QABSLT8nL2r3ijkaAElbA38E5utTsDC0l4APm9nL3kE69HngNd4hskuAb3qHCLXzTdK+VYIFSMdc6U4jXY8O/uYHTsmj+8CgewAkTSZd6yrp+e2m2s/MDvUO0Ym8WMk/gRIWLZkOrJEXJgmhqyQtBdxIGaOjTwFvNLMnvIMMR9LvgN28c4RXPAKsZWYPDR4B+D+i+JfgcuB73iFG4TOUUfwBvhTFP/RK3rdKuf7+WuC/vEN0IC4DlOX1wNHQMgIgaRPKGd5qsjuBDasw2xeApNeQvv2XMBfEVGCTqs3HHaolr3MxhbR6qLd/A8v2Y9a4scoLsj1MeVMrN92mrSMAB7jFCAMeAbapSvHPPkUZxX8G8Oko/qHX8j72adI+5620m2/nkO9j+qN3jjCHA2RmAytg3eedpuGeATYzs2u9g3RK0tzAv0izQXr7gZmVMjQbGkDSYaRHX709CCxjZjO9g7QjaVPgYu8cYXYDIwDbuqYILwPvrVLxz95FGcX/PuAg7xChcQ6ijC9Ok0nHYsmmAEVPXNREAw1A6TtPnb0I7G5mVZwwYy/vANnnzOxZ7xChWfI+9znvHFkpx+KQ8mWT33rnCLMbuARwLWlxn9Bf04GdzOwy7yCjlReGepj0PLKns81se+cMocEknQVs5xzjeWBSJwvAeMmPmd9LmskwFGBgBGAp1xTNdAewfhWLf/Y+/Iv/TGBf5wwh7EvaFz0tQDomi2VmDwLHeucIrxoYAZgBzO0dpkGmADub2WPeQcZK0iWkpaE9nWBmezhnCD0iaVlge9KSspOBSaRvjw+RRp+uA840s+udIr5C0vHA7s4xppjZps4ZhiVpReA2hlmHJvTPQAMQj071hwH/A3zRzF7yDjNW+cR8DyDHGAasbmY3O2YIXZafsd8V2A94a4f/2f3AT4Cfm9nzvco2HEmrATfhf0y8ycz+4ZhhRJJ+C0TjXoDowvrndmBjM/tslYt/9iF8T3QAp0bxrxdJ7wCuJq1j3mnxB3gDcBhwl6SP9iLbSPK+eKrHtluIdGyWbm/S5xycxQhA780gnZy+aWYveofpBkl3ACs6x1ingo9NhjYk7Q38DJinCz/u18B/9rvRlvQ24Jp+bnMId5rZSs4ZRiRpImnK8xW8szRZjAD01tXAumb29RoV//XxL/7nRvGvB0lzSfoZcCTdKf4A/w+4ID+p0jd5nzy3n9scwor5GC1anu10a9Lsp8FJNAC9cSmwnZmtV8INSl1WwvPGJa3LHsZI0lykb+uf6cGP3wg4Pm+jn0rYN0s4RkdkZvcAbyNd8gkO4hJAd50DHGpmU72D9IKkCaSO3XNRj0vMbDPH7YcuaCn+vb5m/10z+1qPtzEbSRcDnnfjPwa83sxKWKugI5K2It0gXfzlizqJBmD8HgZOA46s4bf92UjagHTdztO7zexM5wxhHPpY/Af09X4RSTsAZ/Rre228w8z+6pxhVCTNS3qUcktgc2Bp30T1Fw3A2NwNnJJfV5jZLOc8fSHp6/gOcT4KLF2lbzZhdg7FH+AcM+vbTH15pOwBYMl+bXMI+5vZtx23P26SViKNpCxHagYmt7wWdYxWGxO8A1TAs8DNwN9Jz/leYGY3+UZys4Xz9k+I4l9dTsUfYFtJ65vZFf3YmJnNkHQCvrNUbgFUugEwsztIM6bOQdKCzN4QDLwGNwoL9iVsRcUIQHpM72FSx/5gft0P3Eoq+vfEGvMgaT7gcXyn/13bzK5z3H4YI8fiP+AnZta3gixpLeBv/dreEF4EFjWzFxwzuJO0CHM2BYMbhaXo3hMolVLnBmAWMI1Xi/qDzF7kB17TmjKEPx4FrOf9dzNb3XH7YYwKKP4Ad5tZX585l3QT8JZ+bnOQLc3sQsftV0KefXIJhm4UWpuFJanZk3NVvQTwOEMX89Yi/3AMF3eV9/D/cc7bD2NQSPEHWF7ScmZ2bx+3eRzwvT5ub7AtgWgARpBHeKflV9sbufO9Ha9n6EsNrX/m+ZTUqJQ2AvAMI39jf7Dpw1oeJE0BNnba/CxgGTN7wGn7YQwKKv4DNjezi/u1MUlLA//C71vjFWa2gdO2G0vS/KTLCiM1Cgt5ZRzgPQJwGbA/rxb2p53zhCHkG27e7hjhgij+1VJg8Yc+L3tuZg9IugDYqp/bbbGOpIXjvNpf+QvqvfnVlqSFebUpOJi06mVfeV/PuN/MLjKz22MnLdqGpGVYvcTwf4UUWvzB59Exz313Av5Ldoc2zOzpXPsuIt143nfeDUCoBs/r/4b//OqhQwUXf4DpDts8l7QPe/G+dycULBqA0InNHbd9c144JBSu8OIP6XHfvsr7ruey1Vs6bjsULhqAMKx8Q8s6jhEuctx26FAFij/APU7b9dyH1+j3qoihOqIBCCNZEZjbcfvxGFPhKlL8b3S8kdRzHxaxwE5oIxqAMJJVHLc9C7jEcfthBBUp/uC7OM8lpH3Zy8qO2w4FiwYgjMTz5HGDmT3uuP0wjAoV/1nAb702nvfhG7y2TzQAoY1oAMJIPEcAYvi/UBUq/gC/M7PbnDN47svRAIQhRQMQRuJ58ogbAAtUseI/A/imdwh89+VoAMKQvGcCDOXzOnkYcKnTtkdF0rLADsBawCTSjHMvkR47e5A04+W5ZvZvp4hdU7HiD/AFM7vTOwRpXzbSTXn9tqIkxaqmYbBoAEJbkiYDCztt/j4ze8pp2yPKC4N8hLTm+2oj/PVPAzMlTQUOMbO/9DheT1Sw+P/azH7mHQLAzJ6SdB+wjMPmFwTeANznsO1QsLgEEIbjef3/dsdtD0vSzsAtwK8YufgPmBvYFDhP0oWS1uhVvl6oYPE/F/hP7xCDeO7TcRkgzCEagDAcz5OG901bc5A0l6TDgJNJ8yOM1ebAFZI+0J1kvVXR4r+Tmb3kHWQQz306GoAwh2gAwnA8RwCKagAkLQCcBXyxSz9yAeBESQd36ef1RIWL/4veQYYQDUAoSjQAYTieJ43SLgH8BtimBz/3G5IO78HPHbco/l0XlwBCUaIBCMNZwXHbxYwASPo6sFsPN7FvaU1AFP+e8Nynl3fcdihUNABhOB7rpwM84zhv+2wkvQXoxzB9MU1AFP/eyPv0M06b9zqWQ8GiAQjD8XoEsKTh/2/Rv+PEvQmI4t9zXvu217EcChYNQBiSpHmBeZ02f4fTdmcjaS1g5z5v1q0JiOLfF1779rz5mA7hFdEAhHY8vzE85rjtVrs7bbfvTUAU/77x3LdjFCDMJhqA0M5Cjtv2uk462A6O2+5bE1DB4n8O1Sz+AE87bjsagDCbaABCO54nC8+TJACSlsF3HgToQxNQ0eK/c0WLP/g2t55NfShQNAChnUY3AMCy3gGynjUBUfxdxAhAKEY0AKGdpjcAS3kHaNH1JiCKv5toAEIxogEI7TS9AVjcO8AgXWsCovi7igYgFCMagNBO028CLOVJhFbjbgKi+LuLBiAUIxqA0E7TRwAe8g7QxpibgCj+RYibAEMxogEI7TS9AbjHO8AwRt0ERPEvRowAhGJEAxDCEMzsfuBm7xzD6LgJiOIfQhhKNAChnfimAmd6BxjBiE1ABYv/2dS7+Dd9ZC0UJBqA0E40AHACYN4hRtC2Caho8d+lxsUf4ubaUJBoAEI7jb9ZycxuBE72ztGBOZqAKP7FihGAUIxoAEI7MQKQHAjM8g7RgVeagCj+RYsGIBRjgneAUKxoAAAzu1nS/sAh3lk6sK8kgEWI4l+qaABCMaIBCO1EA5CZ2aGSVgd2887SgX29A4xC04o/RAMQChKXAEI70QDM7mPAVO8QNdLE4g9xE2AoSDQAoZ3G3wTYysyeB7YlmoBuaGrxhxgBCAWJBiC043myKG0hHgDM7BmiCRivJhd/8N23owEIs4kGIAzJzF4CXnLa/EpO2x1RSxNwqXeWCjqLZhd/8Nu3X8rHdAiviAYgDMfrG8PKTtvtSG4CtiOagNE4C3hvw4s/+O3b8e0/zCEagDCcJ5y2u5CkpZ223ZFoAkYlvvkDeZ/2ur/F61gOBYsGIAznLsdtFz0KANEEdGig+Mfws+8+fbfjtkOhogEIw7ndcdurOG67Y3FPwLCi+M/Oc5/2PJZDoaIBCMO5zXHbxY8ADDCzZ4kmYLAo/nPy3KejAQhziAYgDCdGADrU0gRM8c5SgCj+Q4sRgFCUaADCcGIEYBRyE7AdzW4Covi3FyMAoSjRAIS2zOxB/B4fWkZSiVMCD6vhTUAU/zbyvryM0+afA+532nYoWDQAYSRe3xwEbOS07XFpaBNwJlH8h7MRaZ/2cKeZmdO2Q8GiAQgj8Rw63MJx2+PSsCbgTNIkP1H82/Pcl2P4PwwpGoAwEs/7ADZ33Pa4tTQBl3hn6aEo/p3x3JejAQhDigYgjMTz5LGWpEUdtz9uuQnYnno2AVH8O5D34bUcI0QDEIYUDUAYiecIwFzApo7b74qaNgFR/Du3Kb7n2mgAwpCiAQgjuROY6bj9yt4H0KpmTUAU/9Hx3IcNuMNx+6Fg0QCEYZnZC8A1jhFq0QBAbZqAKP6j57kP32hmTzluPxQsGoDQiYsct72apImO2++qijcBUfxHKe+7qzlGuNBx26Fw0QCETng2AAK2cdx+17U8HXCxc5TRiOI/Ntvg9/w/RAMQhuHdALxB0uaSVq7irG8NMhV42XH7ezpuuyfM7DnSSMDFzlE6cQZR/MfKc9+dSTPmoagkSQvn2rc58AaXDGaGpFJmiXoGeLDl9cCgf38QeDBflw59JOlS/GbmmwUsY2YPOG2/ZyQtSJpCdzPnKO2cAewaxX/0JC0N/Au/L1pXmtn6TttuLEnzA5OHeC096N8X8so4YIJ3gEEWAlbKr7YkPU6b5qDlzx82sxk9TdssF+HXAMwF7AF832n7PWNmz0nanjKbgCj+47MHvqOsMfzfRZImAJMYupi3FvnFvDKOVmkjAN00C5jGyCMK08xsllfIqpC0Gb73AvzdzFZ33H5PFTgSEMV/nCTdBLzFMcJWZna+4/YrQdJcwERG/sY+Ef/L5l1V5wagUzOAh5m9ObgfuBX4O3BPLKQBkuYDngDmd4yxtpld57j9nspNwJn4T4EcxX+cJK0F/M0xwovAYmb2vGOGIkgS8CZSM7Yq6Xp7a5GfRHmj4X3RyF96kAmkHaLdTRjPSrqZ1AzcBFxgZjf1K1wpzOxFSZfj+0zzXkBtG4B8OWAHfJuAKP7dsZfz9v/a1OIvaXVgS2B1UtFfDXiNa6hCxQjA2NwNnJJfVzTlEoKkbwAHO0Z4FFi67vd2OI4ERPHvgnyt+AFgSccYB5iZ57HaN3kIf31g5/xa3jdRdUQDMH4PA6cBR5rZ9d5heknShqRHAj2928zOdM7Qcw5NQBT/LsmjOGc4x9jIzC5zztBTktYEPgW8hzSMH0YpGoDuOgc41My8i2RPSJqH9C3cc4W+S8xsM8ft900fm4Ao/l0k6WJ8F7F6AljSzDzn7ugZSRsBXwe29c5SdbW6o7EA2wKXSpoiqXY7Zz6hnOQcY9N8Aqi9PFnQDvT26YvTieLfNXnf9F7B8qQ6Fn9J20qaAlxKFP+uiAagNzYGzpZ0VR6mqpNjvQMA+3kH6JeWJqAXlz1OBN4Xxb+rStg3SzhGu0bSmpKuAs4mnVtDl0QD0FvrAldLOjQ/Rld5+bri3c4xtpH0NucMfZObgPcA3+vWjwT2M7MPRvHvnrxPeq9bcXddrv1Lmk/SocDVpHNp6LJoAHpvAvA14IZ8E10dHOcdgDK+afWNmc0ys68CuwD3jONH3QZsZ2aHdidZaFHCPlnCsTlu+Vx5A+ncGY+r90jcBNhfBvwP8MUqf/OS9Cb8RwEMWN3MbnbO0Xf5ZsxPAF8EluvwP7uDNIJwjJnN7FW2ppK0GmmeEM+V/wCWN7PxNIiuJM0L/AD4DP7vZe0NNAAzgLm9wzTIFGBnM3vMO8hYSZoKeI9onGBmezhncJULzw7AOsBSpMehZpEeT30IuBI408zucAvZAJKOB3Z3jnGZmVX2BllJi5PmVtnEO0tTDDQAD5JOHqF/7iANxXp/kx4TSZ8EjnKOMRNY1czudM4RGkzSiqSpw72/RO1tZr90zjAmkpYn3eQ37EJwobsG7gF4yDVFM60EXFHh+wJOIs037mlu4MfOGUL4Mf7F/0X8H9Edk3wOvIIo/n030ABU9ppRxS0BXCBpV+8go2VmT5CeIfe2naSdvUOEZsr73nbeOYDT8zFZKfncdwHpXBj6bKABOM81RbPNB5wgaSvvIGNQyvPGP5EUi32Evsr73E+8c2SlHIsdk/Qu4ATSOTA4GGgAznFNEeYB/pSXEK2Sc4FHvEMA/wEc5B0iNM5BpH3P2yOkY7Ey8pwJfyKd+4KTuQDM7H7SMEzwszBwlqQ3egfpVF6V73DvHNm+kt7iHSI0Q97X9vXOkR1epRUy82PEZwELeWdpuPNllqYAkLQJcIlvnkCaqGXDqjwiKGlh4B/A4s5RIK1UuIkN7NQh9IAkkR7lLeGRu8eBN5rZ095BOiFpInAZsKJ3lsA7XpkJ0MymEPcClGAV4JS8xnXx8omnlOugGwEf9g4Rau/DlFH8AX5aoeI/N3AqUfxLcIaZ/VWtX5YkTQauBya6xQoDvmxmh3mH6ISkRYF/Aq/1zgJMB9Yws3i0NXSdpKWAGynjrvVnSN/+qzJa+HXgEO8cgYeANc3s0dm+ZZrZg8CepAlWgq+D8yxvxcuPH/3cO0e2BOmpikqMoITqyPvUCZRR/AGOqFDxXx040DtHYAawu5k9CkMsBmRmfwZ2xX+Sl6abDzhGUlUWwvgR8Jx3iGwz4ADvEKF2DiDtWyV4nnTMFS+vXXEMMK93loZ7gTQF/cUDfzDktyQzOxXYljScGvy8jTJWGBuRmU0HjvTO0WJ/SVt4hwj1kPel/b1ztPi1mZXwCG4n9gOq9ohz3UwHtjWzM1v/UMPdMC1pCVKXuWdvs4VhvAysa2Y3eAcZSb4+eg8wv3eW7GHgrQPDXSGMhaQlSUvTTvLOkr0ErGBm93kHGYmktwLXEEv6ejoO+EL+kjabYa+Tmtl0M9sL2AA4mnKGeJtkHuBg7xCdyDfe/cY7R4tJwG/jfoAwVnnf+S3lFH+AY6tQ/LODieLv4TlSzd7AzPYaqvjDCCMAc/xl6bWkpRrfBqxNWot8MvC68aYNI3qbmf3NO8RIJC0D3EVZM3x9w8zi7uMwapL2A77tnaPFTGDlKqwimmc2Lf6cVQP/Bh4E7iW939cCU8zsqZH+w1E1AG1/iDQfqREY/Fp60L8vPO6NNddpZraTd4hOSPo5sI93jhYzSde//uIdJFRHXp/jHPxX+mv1GzP7uHeITkg6GYiFusbuaVJhH3g9MOjfHwQeNLMx37DflQag441JCzF0YzD4Vco15JIYsFZF7gVYDLiDch6XgvTM9OZmdo13kFA+SesAF1HWdLWPk779T/MOMpL82N8NgLyzFOgFhijkDCr0ZvZMr4P0tQHolKTFGXk0YRLNu7Z0spm91ztEJyR9DPhf7xyDTAM2MrM7vIOEcklaiTStdGkTon3azEp60qYtSb8H3u+do89mkG48HvZbe0lzNxTZAHQi35wzkeFHFJbOf6cuXagBq5nZrd5BRpLnS58KvMM7yyD/JK218IB3kFAeSUuT5qovbVGuq4H1zWyWd5CRSFoZuIURbjKvECN9eRhyCL7lz6dV4fNpVdkGoFN5EopJDD+aMBlYzCvjKB1qZpWYGyA/AnQtZV1DBfg7adGgx72DhHLkS1dTgNJWlZwFrGdm13oH6YSkQ4Cve+fo0OO0L+gDr4fN7GW3hD1U+wagU/kJh41IM31tRnrKobTCBXCXmVVmMQ1JPwE+651jCJcD7zSz572DBH+SFgDOp7wRK0hT/v6nd4hOSboTWME7xxBmku6Svzi/pnZyp3ydRQPQRl7g5mvA50jT8pakEo8EwiuN1e2U9Rz1gLOAnaq0lnrovjzd9qnA9t5ZhvAo6ca/J7yDdELS2qRRv5K8SFqx9DtVeR/7pS7XaLrOzJ4ws68AqwJ/9M4zSGVurskd9he9c7SxPXCqpAW9gwQf+bMvtfgDfKliRau0c9MfgVXN7CsVex/7IkYAOiRpB+APlPGI4r1m9ibvEKMh6WJgU+8cbfwV2KGku3ND7+Wnjc4kzXRaoilmVuoxMyRJ95AmiPP2AvC+wXPfh9lFAzAKeWKQ04AFvLOQ1geozDPteWnj6yhrhsBWtwBbm9n93kFC70l6A/Bn4M3eWdqYQVqz/WbvIJ3Kcydc7Z2DtFLie2Lir5HFJYBRyDvUu0k7mLfNvQOMRj6RHeadYxhvBi6XtKp3kNBb+TO+nHKLP8D3q1T8sxLOSc8D747i35loAEbJzC4A9vLOQXpKoWoOJJ14S/UfwFRJ63sHCb2RP9uppM+6VJeTjpWqKeGctGc+R4cORAMwBmb2R8B7JyvhYBuVfLf9bqTFK0q1OHCBpO28g4Tuyp/pBaTPuFT/Bnar6JMp3uekv5jZn5wzVEo0AGO3L+m5Ui8rSqrc4kp5GdO9SLNrlWpB4AxJB8ZSwtUnaS5JBwJnkD7bUhmwV4WW+n1FPhd5zk8yg3RODqMQJ7cxMrO/A0c5RhCwpuP2x8zMzqbs+wEgHRsHAedJer1zljBG+bM7j/RZln6+OywfG1W0Jr5Trh9hZrc4br+SSj8gSncwaZpOL95DbuOxH2nO9dJtCVwvaTPvIGF08md2PekzLN1lpGOiqjzPRbOAQx23X1nRAIyDmT1MerTNS2WmBB6sIvcDDJgEnC9p/7gkUL485L8/aWrfEmegHKzK1/0HeJ6LrjOzRxy3X1lxMhu/8xy3vajjtsctP3O/J2XfDzBgbuA7DJGVAAAf4klEQVRbwLmSlvQOE4aWP5tzSZ9ViWt5DGakO9erPv+E57nI8xxcadEAjJ/nzreI47a7wszOAb7vnWMUtgJukPRB7yBhdvkzuYH0GVXF9/MxUHWe56JoAMYoGoDxuxx41mnblR4BaPEN0rPZVTEJOEHSBZJW8Q7TdJJWkXQBcALVGPIfMJW079eB17noWcqeW6Ro0QCMk5m9hN917MqPAMAr9wPsAtzhnWWUtgBulPSdWFCo/yQtKOk7wI2kz6JK7gB2qfh1/1Ze56Lp+RwcxiAagO7wevylFg0AgJlNA7YGHvLOMkrzAF8FbpW0k3eYpsjv9a2k977U9SXaeYi07sQ07yBdVJtzUZNEA9AdXu9jrb51mtk/gG2AJ52jjMUywCmSzpRU2aczSidpRUlnAqeQ3vOqeRLYJu/rdeJ1LqrCDcTFigagO7zex9qtb21mNwI7kpbzrKLtSaMBx+cVEEMXSFpN0vGkb/3be+cZoxeAHfM+Xjde5yLPyYcqLxqAcZI0D37DX1V4hn7UzGwKsDu+Uy2Px9yk/DdJOlnS27wDVZWkt0k6GbiJ9J5W4dG+ocwEds/7dh15nYsWlVTVfcJdNADjtwF+w1+1bAAAzOwUYB/vHOMkYGfgGknnSNrIO1BVSNpI0jnANaT3sOrf9PbJ+3Rded4IvZ7TtisvGoDx83zmuLYNAICZ/ZJqLos6lG2ASyVdLGkHSRO8A5VG0oT83lwMXEp6z+rgwLwv15nnuWhrx21XWjQA4/cux21Pd9x2X5jZt4AjvHN00aakVekekHS4pLW8A3mTtJakw4EHSO/Nps6RuumIvA/Xnee5KBqAMYoGYBwkLQus4xihTo8RDee/gBO9Q3TZkqTlS/8m6SZJX5a0tHeofpG0dP6dbwL+Rnov6jbF8omkfbcJPM9F6+ZzcRilaADG56f4vod1vJt4DmY2C9iDeo0EtHoL8D3gX5LOk7SnpIneobpN0sT8u50H/Iv0O7/FOVavHAHskffdJvA8F81NOheHUZJZPEY5FpJ2BE5zjjHRzGp/GaCVpAOAb3rn6AMDbgYuAi4ELjGzx30jjY6kRUnD+Vvk12pU/2a+ThzYkGH/V0haAv8RyfeY2enOGSolGoAxkLQAcAuwrGOMu81sBcftu5H0SdI3rCY9/jOLtNDNhaSm4FIze8o30uwkLQxsRCr2mwNr0axRxpmku/3rfsPfkCTdBSzvGOEfwJvN7HnHDJUSDcAYSDoS2Ns5xglmtodzBjeSdiYt/jK/dxYnBtwH3A7cll+3A7eZ2QO93HC+V2FlYJVB/1yGZnzDH8oLpOf86/yo37DyRE27O8c4ysw+5ZyhMqIBGCVJnwJ+4Z0D+JyZNfq6l6RNgNOJecgHe4bUDNwBPJb//elBr9Y/A1gYWCj/s/U18GeLAyuRCv1Cffo9quJJ0gx/dZ3kpyOSPgv8xDsH8GkzO9I7RBVEAzAKueCcTxmLj7zdzK7yDuFN0hrAucBS3llCIz1Emtu/ETfkDkfSesCV3jmAl4F3Nr0h60Q0AB2StAxpVrIS7s5+AFimQXcYDys/AvRn0jfUEPrlDtKqfv/wDlICSXORnu4o4XHWacA6ZvYv7yAla9INOmOW13o/jTKKP8CJUfxflU/AGwFTnaOE5pgKbBTF/1X5nFTKfB0TgdPyuTu0EQ1AZ/4PWNM7RIvjvQOUJq+tvjnwXWKJ0NA7RtrHNs/7XJhdSeemNUnn7tBGXAIYgaSvA4d452hxq5m92TtEySRtAxwHLOGdJdTKdGBPMzvXO0jJJN0CrOqdo8V+Znaod4gSxQjAMCS9G/i2d45BSuqwi5RP0GuSFpQJoRsuBdaM4t+R0s5R387n8jBIjAC0IWlV0h2tC3tnaTELWMHM7vUOUgV5nfBvAV+juc+nh/Ex4DvAAWY20ztMFUhaDriLsr5gPk16cupW7yAlKekDKoakxUjPl5dU/AF+F8W/c2Y208z2A7bFf5rSUD3TgG3NbL8o/p3L56jfeecYZGHg9HxuD1mMAAySvzWeje8yv0OZAaxqZnd5B6kiSZNJJ6VNvLOESpgCfNDMHvQOUkWSVgBuBSZ4ZxnkPGC7aOiSGAGY0/cpr/gDHBPFf+zyiXwL0kJCLznHCeV6ibSPbBHFf+zyuepo7xxDeBfpHB+IEYDZSNoLOMY7xxBeAlaMSS26Q9IqpMWENvfOEopyEWkxn9u8g9RBnjztTmBe7yxD+LCZHesdwluMAGR5GstSV/H6ZRT/7jGz28xsC2AP4GHvPMHdw8AeZrZFFP/uyeesYs+p+ZzfaDECAEhaijTN72TvLEP4N7CamT3iHaSOJC0CHAzsQ7OWFw5p+d4jgP3N7EnvMHUk6fXAzcDrvLMM4UHSdMEPeQfx0vgRAEnzAadQZvEH+EQU/94xsyfN7LPAekDjF1dqkKuA9czss1H8eyefuz7hnaONycApuQY0UuMbAOAo4O3eIdr43yavL95PZvY3YAPgU8DjznFC7zxO+ow3yJ956LF8Dvtf7xxtvJ1UAxqp0ZcAJO0LHO6do427SDOPPesdpGkkTSTN9/5h4rJAXcwk3eD71ZjDv/8kvQa4HljBO0sbnzezH3uH6LfGNgCS3klaR77EE/wMYEMziyFpR5KWB74K7EWZdzKHkb0EHAt818zu9g7TZPmmu8sob24ASA3iNmZ2vneQfmrkJYB8Yj+JMos/wIFR/P2Z2d1m9glgeeCnwPPOkULnngd+Rpo6+xNR/P3lc9qB3jnamBs4KdeGxmjcCICkhYEr4P+3d+fBllXVHce/ixmZ1DSIoY0IymACCOlJWgZFBiXSnSAGBQpjDDhlIEQFFDUFCqWGBMqogKYUbKIdiAh0RSBgq4BMMpmymRGFMLVMDdJNDyt/7N3k9Xvvvn7v3XPP2uec36fqVFc1zT3r3nP3Xuvus8/elLqj3kXAYd61C9MAZrYVcBzpiYHNg8OR0T1Hmtl/hibPlsfMDPgP4NDoWHr4JTDL3ZdEB1KHThUA+ct3MXBIdCw93AHsqfv+ZTOzlwN/DfwtZT7e1EVPkUZpznL3J6ODkd7yfIDrgF2jY+nhEmBuF36Eda0AOAX4dHQcPSwGprv7r6IDkfExs01JM8qPo9zHSNvuMdJE3q925VdbG5jZtsBNwJTYSHo61d1Pjg5i0DpTAJjZu0lDTyVaAezv7gujA5GJyxtIHUCaLDgH2Dg2otZbRvqVdh7wQ3dfERyPTIKZ7QtcSZmTAiHdir0wOohB6kQBYGa7kWafbhIdSw8fc/d/jQ5C+mdmmwOHkYqBvQCLjahVriUl/fnu/nR0MNI/M/so8JXoOHp4nvQ01u3RgQxK6wsAM5tCWub3tdGx9HCuux8THYRULw9zHkkqBt4QGkxz3QecD5zv7vdHByPVM7NzKHe1wAdJywUvjg5kEFpdAJjZ+qQhpn2iY+nhWtK2o9qetuXMbBapEPhz4JXB4ZTuadJjuue5+7XRwchgmdkGwNXA7OhYevgx6Rbt8uhAqtb2AuCrwIej4+jhN6RJf3pUqUPMbD1gOrAf8DZgT6Cza5Fny4CfkZLA1cCNbexspbe8adBNwGuiY+nha+7+keggqtbaAsDMjqHcNZ5fAN6itcjFzDYiFQGrC4JplDspqiorSbflVif8a91diyx1nJntAVxDuZNoj3X3Urc3npRWFgBm9hZSx7J+dCw9vM/d/z06CClPXqhqb1IxsB/pWemmTyR00hoXqxP+T9z92diQpERm9l7ggug4elhOumV7TXQgVWldAWBmf0AaStoqOpYeTnf3E6ODkGbITxXsAOw47HgD8LLA0EbzO+Ae4K5hx91K+DJeZnY68MnoOHp4nHTr9tfRgVShVQWAmW1Mmli3e3QsPSwADnH3VdGBSLPlVS2nMrIw2B54BbAZ1Y+ALQeWkFbdu4+Rif6hLqyeJoNlZuuQ1nk4ODqWHm4lPR7Y+NtWbSsAvkuaZV2iO0lrTD8THYh0Q55fsBlp34Khfw7/O4BnScl99Z9Lhv+duy+tM37pLjPbgrRny07RsfTwPXc/PDqIfrWmADCzE4EvRMfRw9PATHe/OzoQEZEmMLMdgBuAl0fH0sNJ7n5adBD9aEUBYGZ/AvyAMrc3XgUc7O4/jA5ERKRJzOwg0q3TUvv2Oe5+WXQgk1XihzohZrYTMI9y38sJSv4iIhOX+84TouPoYR1gXs5BjdToEYC8LeuNlLvM6jx3PzI6CBGRJjOz7wBHRMfRwz3AjCbuT9HYAiDvwLYAODA6lh5uBvbSxCkRkf7kCa0/JS2UVaLLSbd6V0YHMhGlDpuPx+mUm/wfBeYq+YuI9C/3pXNJfWuJDiTlpEZp5AiAmR1J2iGsRC8C+7r7z6IDERFpEzN7M7AQ2CA4lF6OcvfvRAcxXo0rAMxsN9LzoRtFx9LDX7r7v0UHISLSRmb2AeCb0XH0sJS03svt0YGMR6NuAeSd1L5Fucn/LCV/EZHByX3sWdFx9LAR8K2cq4rXqAKA9DjIm6KD6OEq4PjoIEREOuB4Up9bojcBjdjvpTG3APKmKA+Rli8tzf2kDSKejA5ERKQLzOyVpI3ftouOZRRLgKmlb4LVpBGAv6DM5P8caTUoJX8RkZrkPncOqQ8uzWaknFW0JhUAx0YHMAonzfr8n+hARES6Jve9R5H64tKUmLPW0IgCwMymADtHxzGKz7n7xdFBiIh0Ve6DPxcdxyh2zrmrWI0oAICZ0QGM4iLglOggRESEU0h9cmlKzF0vaUoBUNpmC3cAR3tTZlCKiLRY7ouPJvXNJdkxOoCxNKUA2DQ6gGGWAo14zlNEpCPWI/XNJdk4OoCxqACYnBnA5Wa2RXQgIiJdl/viy0l9c0lUAFSgxEfsZqIiQEQk1JDkX+L99qeiAxhLUwqAu6MD6EFFgIhIkMKTP8C90QGMpSkFwC+jAxiDigARkZo1IPkD3BUdwFiatBTwfZS55ONqNwAHuvsz0YGIiLRZQ5L//e6+fXQQY2nSTPYLgU9EBzGG1SMBKgIqlBfSmAnsCmwJTAF+b8jxcuB3wDP5eHrIn/cAtwC3ufuS2oOXxjOzzUibu+wBvIH0fdtiyJ9bAC8jfd9+O+RYDDxBeiztBndfXHvwLdWQ5A8pZxWtSSMAOwO/ANaNjmUtNBIwSWa2DjANmEVq3DOBKipo5/+LgVuAH7n7zRW8rrSMmU0D3kpK+KuTvlXw0veR+oYbgOuBm919VQWv2ykNSv4rgV3cfVF0IGNpTAEAYGbnAH8VHcc4qAiYADPbHTgCOBzYpqbTPgDMB+a7+y01nVMKZGZ7AO/Jx+tqOu3DwHeBee5+a03nbLQGJX+Ac939mOgg1qZpBcDWpEkVm0fHMg4qAsZgZq8D3kdK/NH7PNxLKgbOc/eiJ+1INfKI4pGkpP/64HAWAfOAC9z9geBYitSw5P8ssKO7PxodyNo0qgAAMLODgUtoxhMMKgKGMbPtSRt3vI/yruEq0n27U939F9HBSPXMbDfgM8CfUs3QfpVWAReQNhm7LzqYUjQs+a8CDnH3BdGBjEdpHfBa5Q+25MmAQ+kRwczMpprZ2cCdpF9eJX731iH9IrzdzP4z35qQFjCzPczsYuBW4M8oL/lD+v4dCdxpZmeb2dTogKI1LPkDfKIpyR8aOAKwmpmdBpwQHcc4dXYkIM/i/xTwYWDD4HAm41LgZHe/PToQmbj8i/8U4F3RsUzCMuBrwOe7+BRBA5P/6e5+YnQQE9HYAgBUBJTOzN4FfAPYKjqWPq0APk/qiJdHByNrZ2brkQrPTwHrB4fTr8eBD7r7pdGB1EXJvx6NLgBARUCJzGwT4Ayg+FmwE3QraRtozQ8omJn9IfBt4I+jY6nYOcDfu/vz0YEMkpJ/fUq8Dzsh+YM/PTqOcWr9nAAzm05KlG1L/gC7Azeb2UlmVvp6FJ1jZuuY2SeAn9O+5A+pTd2a21grKfnXq/EjAKtpJCCWmRlwIvCPNGuFycm6Dpjr7k9EByJgZq8Evg/sHR1LDVYAnwVO87Z04Cj5R2hNAQAqAqLkIf9vA4dGx1Kze4CD3P3+6EC6zMxeC/wQ2Ck6lppdRLol1fhbAkr+MVpVAICKgLqZ2bbAD0hr9XfRY8DB7v7z6EC6KD+quQB4dXQsQe4A5rj7r6IDmSwl/ziNnwMwnOYE1MfM9gVuorvJH+BVwEIzOyA6kK4xs/2BH9Pd5A+p7d2U22LjKPnHal0BACoC6mBmHwWuJO3O13WbApeZ2bujA+mK/FkvADaLjqUAU4Arc5tsDCX/eK27BTCUbgdUz8w2AL5CMzZlqtsyYD93vzY6kDYzs9nAVTRzYalBOxf4mLu/GB3IWJT8y9DqAgBUBFTJzF5Fmng0OzqWgi0GZmkt98HIe0lcj0aexnItcKi7PxYdyGiU/MvR+gIAVARUIW+ZejHwmuhYGuBu4M3u/mR0IG2SH/X7GbBDdCwN8BvSY6pFbXWt5F+WVs4BGE5zAvpjZu8FrkHJf7x2AL6fb5dIBfJn+X2U/MfrNcA1ue0WQcm/PJ0oAEBFwGTkldVOJ21RunFkLA20N/Dl6CBa5Mt0Y5GfKm0MXGBmp5lZaF+v5F+mTtwCGEq3A8YnN9h5wMF1n7tFHNhLkwL7kyf9/ZQyt/BtigXAEYF9iZJ/gTpXAICKgLUxsx1Ii/t0bWW1QbgL2M3dl0UH0kRmtiFwO7BjdCwtcCdp0aC76zqhkn/ZOnMLYCjdDujNzA4iFR1K/tXYkbRuu0zOZ1Hyr8pOwA25jQ+ckn/5OjkCsJpGAtZkZh8nFUadLAwHaAUw3d1viw6kSczsTaSVJruwuVSdVgEnuPuXBnUCJf9m6HQBACoCAMxsI+AbwBFVvq6s4SZ3nxEdRJOY2Y1Aa7e+LcA84IPuvrTKF1Xyb47O/9Lr+u0AM9uGNMFKyX+wppvZO6KDaIr8WSn5D9YRwE9zH1AJJf9m6XwBAN0tAszszcDNwLS+o5Lx6GxHMwn6rOoxDbg59wV9UfJvHhUAWdeKADP7ALAQ2LqqoGSt9jKzt0QHUbr8Ge0VHUeHbE3a0fIDk30BJf9mUgEwRBeKADNbz8zOBL4JaKW6+p0UHUAD6DOq3wbAN83sTDOb0KRLJf/m6vwkwNG0dWJgXkt9PrDfwKOSseyuJwJGl2f+3xodR8ddBbxnPHtZKPk3m0YARtHGkQAz+yPSI1VtSf7PAA8OO54PjWj8PhQdQMGa8tk8z8jvX1EbePVhP+Cm3Gf0pOTffBoBGENbRgLMbC5wPrBp7VFVZyWpgLk8Hze6+8qh/8DM1gdmAW/PxwzKfIb8UWAbd18VHUhJ8nr1D1PmvJRVpJGJK/Jxnbu/OPQfmNm6pO/cgfmYDqxbc5xVeg44yt0vHv4flPxbwt11jHEAp5HWdG/CcT2wxZDYDfgMqfOKjq2f4xJg20lcuynAmcDyAt7D8GPP6O92aQewZwHXZfixPH+HXjWJ97Nt/u5Gv4d+jlWkPsSGvK8tSH1NdGzjPU6L/m6XeoQH0ISDBhYBwCbAhQXE08/xAHBIBdfvjaRfbdHvZ+jxpejvdWkH8KUCrsvQ4wrgjRW8r0Pydzn6/fRzXEjqU5T8W3ToFsA4Nex2wI3ARsCu0YH04WzgOHd/oaoXNLNDSbdCStja+D53f310ECUxs3uB7aPjAF4gDX1fVNULmtnGwD8Dx1b1mgHuAJaSbnM0gYb910IFwAQ0rAhoquXA37j71wfx4ma2H3ApZRQBu7r7L6KDKIGZ7UJKMNFeAN7l7lcN4sXN7EPAWcD6g3h9eYmS/zjoKYAJ8GY9HdBETwBvH1TyB8gd+xzSL5lobXkiowolfBZLSdvlDiT5A+Tv9ttJ33UZDCX/cVIBMEEqAgbmNmCau/9k0Cdy9yuBwwZ9nnHYJTqAgpTwWRyWvxsDlb/j00jfeamWkv8EqACYBBUBlZsPzHb3X9d1Qne/jDSxKdKYz1l3TPRnMT9/J2qRv+uzSd99qYaS/wRpDkAfNCegbw582t2/EHFyM3sdsAjYMOL8pMVkNvOON0IzM2AJaZZ5hKXATu7+YMTJzewk4FTSY7syOUr+k6ARgD5oJKAvS0j3W0OSP4C7P0B6xjvKJsB2gecvxXbEJX9Ij2SGJH+A3AbmkNqETJyS/ySpAOiTioBJuReY6e6XRgdCWuNh5Vr/1eBED32XIPIzeBH4YuD5AchtYSapbcj4Kfn3QQVABVQETMgVwAx3XxQdCIC7Pw3cEhjCzoHnLkXkZ3CTuz8XeP6X5DYxg9RGZO2U/PukAqAiKgLG5Qzgne7+VHQgwywMPPfUwHOXIvIzGPhTJxOR28Y7SW1FelPyr4AKgAqpCOhpGXC0ux/vwzbwKcTCwHP/fuC5SxH5GRRVAAC4+0p3Px44mtR2ZE1K/hVRAVAxFQEj/C+wt7ufFx3IGK4JPLcKgNjP4LrAc48pt5m9SW1IEiX/CqkAGAAVAS+5gbS4z43RgYzF3Z8Fom5LbBN03pJEfQZP5WtfrNx2ppHaUtcp+VdMBcCAqAjg28A+7v5IdCDjFPUra2sz62w7zO9966DTN+KXdW5D+5DaVFcp+Q9AZzueOnS0CFhJ2sXv/e7epPuXUclgPWDLoHOXYEvSZxChEQUAgLsvc/f3A8cR+9hqBCX/AVEBMGAdKwKeAg5y93+JDmQSIpNBl+cBRL73xhQAq+W2dRBxt6zqpuQ/QCoAatCRIuCXwHR3/+/oQCZJBUAMFQATlNvYdFKbazMl/wFTAVCTlhcBlwCz3P2+6ED68HDguVUAxIi85n3JbW0Wqe21kZJ/DVQA1KilRcCpwFx3b/o65hoBiKERgEnKbW4uqQ22iZJ/TVQA1KxFRcDzpP3TT27JbnaRyaDLjwJGvvdGFwAAnpwMHEZqk02n5F8jFQABWlAEPAjMdvcLowOpkEYAYmgEoAK5Lc4mtc2mUvKvmQqAIA0uAn5MWtzn9uhAKvYoEDWSoQKgfk665q2R2+Q0UhttGiX/ACoAAjWwCPgasL+7L44OpGruvhx4Iuj0KgDq90S+5q2S2+b+pLbaFEr+QVQABGtIEbAcONbdP9LGTnOIqFnhW5pZ1GI4YfJ7jloEqbFPAKyNuy93948Ax5LabsmU/AOpAChA4UXA48Db3P2c6EBqEHVPOHI53EhbE9cHteb+fy+5zb6N1IZLpOQfTAVAIQotAm4lLe4TuVtenTQRsF6aADhgue1OJ7Xlkij5F0AFQEEKKwK+R5rp/+voQGqkRwHrpUcAa5Db8GxSmy6Bkn8hVAAUpoAiYBVwkrsf7u4vBMYRQSMA9dIIQE3c/QV3Pxw4idTGoyj5F0QFQIECi4BngTnuflrAuUugAqBeKgBqltv2HFJbr5uSf2FUABQqoAi4B5jp7pfVeM7SaD+AemkfgAC5jc8ktfm6KPkXSAVAwWosAi4HZrj7nTWcq2QaAaiXRgCC5LY+g9T2B03Jv1AqAApXQxHwZeBgd396gOdoiieAFUHnVgFQnxXELfpUjNzmDyb1AYOi5F8wFQANkBvQP1Dt5J2lwFHu/nF3X1nh6zaWu68ibnlYPQVQn0fzte48d1/p7h8HjiL1CVVZCRyv5F82FQAN4e7/BBxCNZN3bgNmuft3KnittokaGn6FmW0UdO7a5ff6iqDTd3r4fzS5L5hF6hv69RRpVPGMCl5LBkgFQIO4+wJgR+BcUoU9UUuAk0mL+7RtM5+qaB5APXT/vzC5T5gOfIbUV0zUSuDrwE7uXsfcAumTCoCGcfdH3f0YYBfgi8D94/jfFgF/B0x191PdPeo+dxOoAKiHCoACufsKdz8FmErqMxaN43+7n9QX7eLuH3b3UpcelmE6twFJW7j7IuCTwCfNbCfSyMDrScOqL+TjLuCGNu7eN0B6FLAeegSwYO7+LHAmcKaZTSE9NrgjsHE+ngLuBe7S00PNpQKgBXIDVCOshkYA6qERgIbIPyAW5ENaRLcARNakAqAeKgBEgqkAEFmTNgSqhzYCEgmmAkBkTRoBqIdGAESCqQAQGcLdn6TaBVEmQgXA4C3N11ik81QAiIwU9QtRBcDg6de/SKYCQGSkqCSxqZltFnTu2uT3uGnQ6VUAiGQqAERG0jyAwdL9f5ECqAAQGUkFwGCpABApgBYCEhkpMkmcYmYPBZ6/DlMDz60CQCRTASAyUmSSmB147i5QASCS6RaAyEhaK769VACIZCoAREZSkmgvFXcimQoAkZFUALSXrq1IpgJAZBh3fw5YEh2HVG5JvrYiggoAkV70S7F9dE1FhlABIDI6JYv20TUVGUIFgMjolCzaR9dUZAgVACKj02zx9tE1FRlCBYDI6PRrsX10TUWGUAEgMjoli/bRNRUZQgWAyOiULNpH11RkCBUAIqNTsmgfXVORIczdo2MQKY6ZbQgsjY5DKrWRuy+LDkKkFBoBEBlFThS/jY5DKvNbJX+RNakAEOlNQ8btoWspMowKAJHeHogOQCqjaykyjAoAkd5uiQ5AKqNrKTKMCgCR3n4eHYBURtdSZBg9BSDSg5ltDjwCvCw6FunL74BXu/uz0YGIlEQjACI95IQxPzoO6dt8JX+RkVQAiIzt7OgApG+6hiKjUAEgMgZ3vx44PzoOmbTz8zUUkWE0B0BkLcxsCrAImBIdi0zIYmBnd18cHYhIiTQCILIWOYEchpYGbpKlwGFK/iK9qQAQGQd3X0gqAlYEhyJrt4KU/BdGByJSMhUAIuPk7pcBBwKPR8ciPT0GHJCvlYiMQQWAyAS4+9XAHsDV0bHICFcAu7v7j6IDEWkCFQAiE+TuD7v7fsBbUSFQgquAfdz9QHd/JDoYkabQUwAifTKzqcA7gAOA7YBXA1sB60bG1UIrSbdfHgHuJ/3i/y93fyg0KpGGUgEgIiLSQf8HcZmQlsJLRH0AAAAASUVORK5CYII=;" vertex="1" parent="1">
                    <mxGeometry x="555" y="253" width="50" height="50" as="geometry"/>
                </mxCell>
                <mxCell id="25" style="edgeStyle=none;html=1;strokeColor=#6F0000;fontColor=#000000;exitX=0.145;exitY=0;exitDx=0;exitDy=4.35;exitPerimeter=0;fillColor=#a20025;" edge="1" parent="1" source="14">
                    <mxGeometry relative="1" as="geometry">
                        <mxPoint x="540" y="150" as="targetPoint"/>
                    </mxGeometry>
                </mxCell>
                <mxCell id="26" style="edgeStyle=none;html=1;entryX=0;entryY=0.5;entryDx=0;entryDy=0;strokeColor=#6F0000;fontColor=#000000;fillColor=#a20025;" edge="1" parent="1" source="14" target="11">
                    <mxGeometry relative="1" as="geometry"/>
                </mxCell>
                <mxCell id="14" value="" style="shape=cylinder3;whiteSpace=wrap;html=1;boundedLbl=1;backgroundOutline=1;size=15;rotation=90;fillColor=#d5e8d4;strokeColor=#82b366;" vertex="1" parent="1">
                    <mxGeometry x="330" y="170" width="60" height="160" as="geometry"/>
                </mxCell>
                <mxCell id="15" value="&lt;font color=&quot;#000000&quot;&gt;Message brocker&lt;br&gt;Redis queue&lt;/font&gt;" style="text;html=1;strokeColor=none;fillColor=none;align=center;verticalAlign=middle;whiteSpace=wrap;rounded=0;" vertex="1" parent="1">
                    <mxGeometry x="290" y="235" width="120" height="30" as="geometry"/>
                </mxCell>
                <mxCell id="16" value="Worker 1" style="text;html=1;strokeColor=none;fillColor=none;align=center;verticalAlign=middle;whiteSpace=wrap;rounded=0;labelBackgroundColor=#FFFFFF;fontColor=#000000;" vertex="1" parent="1">
                    <mxGeometry x="545" y="170" width="60" height="30" as="geometry"/>
                </mxCell>
                <mxCell id="18" value="Worker 2" style="text;html=1;strokeColor=none;fillColor=none;align=center;verticalAlign=middle;whiteSpace=wrap;rounded=0;labelBackgroundColor=#FFFFFF;fontColor=#000000;" vertex="1" parent="1">
                    <mxGeometry x="550" y="330" width="60" height="30" as="geometry"/>
                </mxCell>
                <mxCell id="19" value="Celery + DBT" style="text;html=1;strokeColor=none;fillColor=none;align=center;verticalAlign=middle;whiteSpace=wrap;rounded=0;labelBackgroundColor=#FFFFFF;fontColor=#000000;" vertex="1" parent="1">
                    <mxGeometry x="540" y="140" width="80" height="30" as="geometry"/>
                </mxCell>
                <mxCell id="20" value="Celery + DBT" style="text;html=1;strokeColor=none;fillColor=none;align=center;verticalAlign=middle;whiteSpace=wrap;rounded=0;labelBackgroundColor=#FFFFFF;fontColor=#000000;" vertex="1" parent="1">
                    <mxGeometry x="535" y="300" width="85" height="30" as="geometry"/>
                </mxCell>
                <mxCell id="21" value="" style="endArrow=classic;startArrow=classic;html=1;fontColor=#000000;entryX=0;entryY=0;entryDx=0;entryDy=52.5;entryPerimeter=0;exitX=1;exitY=0.5;exitDx=0;exitDy=0;strokeColor=#005700;fillColor=#008a00;" edge="1" parent="1" source="3" target="5">
                    <mxGeometry width="50" height="50" relative="1" as="geometry">
                        <mxPoint x="280" y="260" as="sourcePoint"/>
                        <mxPoint x="330" y="210" as="targetPoint"/>
                        <Array as="points"/>
                    </mxGeometry>
                </mxCell>
                <mxCell id="22" value="" style="endArrow=classic;startArrow=classic;html=1;fontColor=#000000;entryX=0;entryY=1;entryDx=0;entryDy=-15;entryPerimeter=0;exitX=1;exitY=0.25;exitDx=0;exitDy=0;strokeColor=#005700;fillColor=#008a00;" edge="1" parent="1" source="4" target="5">
                    <mxGeometry width="50" height="50" relative="1" as="geometry">
                        <mxPoint x="190" y="160" as="sourcePoint"/>
                        <mxPoint x="340" y="142.5" as="targetPoint"/>
                        <Array as="points">
                            <mxPoint x="260" y="160"/>
                        </Array>
                    </mxGeometry>
                </mxCell>
                <mxCell id="23" value="" style="endArrow=classic;html=1;strokeColor=#6F0000;fontColor=#000000;exitX=1;exitY=0.5;exitDx=0;exitDy=0;entryX=0.5;entryY=1;entryDx=0;entryDy=0;entryPerimeter=0;fillColor=#a20025;" edge="1" parent="1" source="4" target="14">
                    <mxGeometry width="50" height="50" relative="1" as="geometry">
                        <mxPoint x="280" y="260" as="sourcePoint"/>
                        <mxPoint x="330" y="210" as="targetPoint"/>
                    </mxGeometry>
                </mxCell>
            </root>
        </mxGraphModel>
    </diagram>
</mxfile>